<svg width="214" height="32" viewBox="0 0 214 32" fill="none" xmlns="http://www.w3.org/2000/svg">
<path d="M2.26136 22H0.397727L4.58523 10.3636H6.61364L10.8011 22H8.9375L5.64773 12.4773H5.55682L2.26136 22ZM2.57386 17.4432H8.61932V18.9205H2.57386V17.4432ZM15.4716 22.1705C14.767 22.1705 14.1383 21.9905 13.5852 21.6307C13.036 21.267 12.6042 20.75 12.2898 20.0795C11.9792 19.4053 11.8239 18.5966 11.8239 17.6534C11.8239 16.7102 11.9811 15.9034 12.2955 15.233C12.6136 14.5625 13.0492 14.0492 13.6023 13.6932C14.1553 13.3371 14.7822 13.1591 15.483 13.1591C16.0246 13.1591 16.4602 13.25 16.7898 13.4318C17.1231 13.6098 17.3807 13.8182 17.5625 14.0568C17.7481 14.2955 17.892 14.5057 17.9943 14.6875H18.0966V10.3636H19.7955V22H18.1364V20.642H17.9943C17.892 20.8277 17.7443 21.0398 17.5511 21.2784C17.3617 21.517 17.1004 21.7254 16.767 21.9034C16.4337 22.0814 16.0019 22.1705 15.4716 22.1705ZM15.8466 20.7216C16.3352 20.7216 16.7481 20.5928 17.0852 20.3352C17.4261 20.0739 17.6837 19.7121 17.858 19.25C18.036 18.7879 18.125 18.25 18.125 17.6364C18.125 17.0303 18.0379 16.5 17.8636 16.0455C17.6894 15.5909 17.4337 15.2367 17.0966 14.983C16.7595 14.7292 16.3428 14.6023 15.8466 14.6023C15.3352 14.6023 14.9091 14.7348 14.5682 15C14.2273 15.2652 13.9697 15.6269 13.7955 16.0852C13.625 16.5436 13.5398 17.0606 13.5398 17.6364C13.5398 18.2197 13.6269 18.7443 13.8011 19.2102C13.9754 19.6761 14.233 20.0455 14.5739 20.3182C14.9186 20.5871 15.3428 20.7216 15.8466 20.7216ZM25.4872 22.1705C24.7827 22.1705 24.1539 21.9905 23.6009 21.6307C23.0516 21.267 22.6198 20.75 22.3054 20.0795C21.9948 19.4053 21.8395 18.5966 21.8395 17.6534C21.8395 16.7102 21.9967 15.9034 22.3111 15.233C22.6293 14.5625 23.0649 14.0492 23.6179 13.6932C24.1709 13.3371 24.7978 13.1591 25.4986 13.1591C26.0402 13.1591 26.4759 13.25 26.8054 13.4318C27.1387 13.6098 27.3963 13.8182 27.5781 14.0568C27.7637 14.2955 27.9077 14.5057 28.0099 14.6875H28.1122V10.3636H29.8111V22H28.152V20.642H28.0099C27.9077 20.8277 27.7599 21.0398 27.5668 21.2784C27.3774 21.517 27.116 21.7254 26.7827 21.9034C26.4493 22.0814 26.0175 22.1705 25.4872 22.1705ZM25.8622 20.7216C26.3509 20.7216 26.7637 20.5928 27.1009 20.3352C27.4418 20.0739 27.6993 19.7121 27.8736 19.25C28.0516 18.7879 28.1406 18.25 28.1406 17.6364C28.1406 17.0303 28.0535 16.5 27.8793 16.0455C27.705 15.5909 27.4493 15.2367 27.1122 14.983C26.7751 14.7292 26.3584 14.6023 25.8622 14.6023C25.3509 14.6023 24.9247 14.7348 24.5838 15C24.2429 15.2652 23.9853 15.6269 23.8111 16.0852C23.6406 16.5436 23.5554 17.0606 23.5554 17.6364C23.5554 18.2197 23.6425 18.7443 23.8168 19.2102C23.991 19.6761 24.2486 20.0455 24.5895 20.3182C24.9342 20.5871 25.3584 20.7216 25.8622 20.7216ZM32.2358 22V13.2727H33.9347V22H32.2358ZM33.0938 11.9261C32.7983 11.9261 32.5445 11.8277 32.3324 11.6307C32.1241 11.4299 32.0199 11.1913 32.0199 10.9148C32.0199 10.6345 32.1241 10.3958 32.3324 10.1989C32.5445 9.99811 32.7983 9.89773 33.0938 9.89773C33.3892 9.89773 33.6411 9.99811 33.8494 10.1989C34.0616 10.3958 34.1676 10.6345 34.1676 10.9148C34.1676 11.1913 34.0616 11.4299 33.8494 11.6307C33.6411 11.8277 33.3892 11.9261 33.0938 11.9261ZM40.294 13.2727V14.6364H35.527V13.2727H40.294ZM36.8054 11.1818H38.5043V19.4375C38.5043 19.767 38.5535 20.0152 38.652 20.1818C38.7505 20.3447 38.8774 20.4564 39.0327 20.517C39.1918 20.5739 39.3641 20.6023 39.5497 20.6023C39.6861 20.6023 39.8054 20.5928 39.9077 20.5739C40.0099 20.5549 40.0895 20.5398 40.1463 20.5284L40.4531 21.9318C40.3546 21.9697 40.2145 22.0076 40.0327 22.0455C39.8509 22.0871 39.6236 22.1098 39.3509 22.1136C38.9039 22.1212 38.4872 22.0417 38.1009 21.875C37.7145 21.7083 37.402 21.4508 37.1634 21.1023C36.9247 20.7538 36.8054 20.3163 36.8054 19.7898V11.1818ZM42.1733 22V13.2727H43.8722V22H42.1733ZM43.0312 11.9261C42.7358 11.9261 42.482 11.8277 42.2699 11.6307C42.0616 11.4299 41.9574 11.1913 41.9574 10.9148C41.9574 10.6345 42.0616 10.3958 42.2699 10.1989C42.482 9.99811 42.7358 9.89773 43.0312 9.89773C43.3267 9.89773 43.5786 9.99811 43.7869 10.1989C43.9991 10.3958 44.1051 10.6345 44.1051 10.9148C44.1051 11.1913 43.9991 11.4299 43.7869 11.6307C43.5786 11.8277 43.3267 11.9261 43.0312 11.9261ZM49.8338 22.1761C49.0156 22.1761 48.3016 21.9886 47.6918 21.6136C47.0819 21.2386 46.6084 20.714 46.2713 20.0398C45.9342 19.3655 45.7656 18.5777 45.7656 17.6761C45.7656 16.7708 45.9342 15.9792 46.2713 15.3011C46.6084 14.6231 47.0819 14.0966 47.6918 13.7216C48.3016 13.3466 49.0156 13.1591 49.8338 13.1591C50.652 13.1591 51.366 13.3466 51.9759 13.7216C52.5857 14.0966 53.0592 14.6231 53.3963 15.3011C53.7334 15.9792 53.902 16.7708 53.902 17.6761C53.902 18.5777 53.7334 19.3655 53.3963 20.0398C53.0592 20.714 52.5857 21.2386 51.9759 21.6136C51.366 21.9886 50.652 22.1761 49.8338 22.1761ZM49.8395 20.75C50.3698 20.75 50.8092 20.6098 51.1577 20.3295C51.5062 20.0492 51.7637 19.6761 51.9304 19.2102C52.1009 18.7443 52.1861 18.2311 52.1861 17.6705C52.1861 17.1136 52.1009 16.6023 51.9304 16.1364C51.7637 15.6667 51.5062 15.2898 51.1577 15.0057C50.8092 14.7216 50.3698 14.5795 49.8395 14.5795C49.3054 14.5795 48.8622 14.7216 48.5099 15.0057C48.1615 15.2898 47.902 15.6667 47.7315 16.1364C47.5649 16.6023 47.4815 17.1136 47.4815 17.6705C47.4815 18.2311 47.5649 18.7443 47.7315 19.2102C47.902 19.6761 48.1615 20.0492 48.5099 20.3295C48.8622 20.6098 49.3054 20.75 49.8395 20.75ZM57.4972 16.8182V22H55.7983V13.2727H57.429V14.6932H57.5369C57.7377 14.2311 58.0521 13.8598 58.4801 13.5795C58.9119 13.2992 59.4555 13.1591 60.1108 13.1591C60.7055 13.1591 61.2263 13.2841 61.6733 13.5341C62.1203 13.7803 62.4669 14.1477 62.7131 14.6364C62.9593 15.125 63.0824 15.7292 63.0824 16.4489V22H61.3835V16.6534C61.3835 16.0208 61.2188 15.5265 60.8892 15.1705C60.5597 14.8106 60.107 14.6307 59.5312 14.6307C59.1373 14.6307 58.7869 14.7159 58.4801 14.8864C58.1771 15.0568 57.9366 15.3068 57.7585 15.6364C57.5843 15.9621 57.4972 16.3561 57.4972 16.8182ZM67.9006 22.1932C67.3475 22.1932 66.8475 22.0909 66.4006 21.8864C65.9536 21.678 65.5994 21.3769 65.3381 20.983C65.0805 20.589 64.9517 20.1061 64.9517 19.5341C64.9517 19.0417 65.0464 18.6364 65.2358 18.3182C65.4252 18 65.6809 17.7481 66.0028 17.5625C66.3248 17.3769 66.6847 17.2367 67.0824 17.142C67.4801 17.0473 67.8854 16.9754 68.2983 16.9261C68.821 16.8655 69.2453 16.8163 69.571 16.7784C69.8968 16.7367 70.1335 16.6705 70.2812 16.5795C70.429 16.4886 70.5028 16.3409 70.5028 16.1364V16.0966C70.5028 15.6004 70.3627 15.2159 70.0824 14.9432C69.8059 14.6705 69.393 14.5341 68.8438 14.5341C68.2718 14.5341 67.821 14.661 67.4915 14.9148C67.1657 15.1648 66.9403 15.4432 66.8153 15.75L65.2188 15.3864C65.4081 14.8561 65.6847 14.428 66.0483 14.1023C66.4157 13.7727 66.8381 13.5341 67.3153 13.3864C67.7926 13.2348 68.2945 13.1591 68.821 13.1591C69.1695 13.1591 69.5388 13.2008 69.929 13.2841C70.3229 13.3636 70.6903 13.5114 71.0312 13.7273C71.3759 13.9432 71.6581 14.2519 71.8778 14.6534C72.0975 15.0511 72.2074 15.5682 72.2074 16.2045V22H70.5483V20.8068H70.4801C70.3703 21.0265 70.2055 21.2424 69.9858 21.4545C69.7661 21.6667 69.4839 21.8428 69.1392 21.983C68.7945 22.1231 68.3816 22.1932 67.9006 22.1932ZM68.2699 20.8295C68.7396 20.8295 69.1411 20.7367 69.4744 20.5511C69.8116 20.3655 70.0672 20.1231 70.2415 19.8239C70.4195 19.5208 70.5085 19.197 70.5085 18.8523V17.7273C70.4479 17.7879 70.3305 17.8447 70.1562 17.8977C69.9858 17.947 69.7907 17.9905 69.571 18.0284C69.3513 18.0625 69.1373 18.0947 68.929 18.125C68.7206 18.1515 68.5464 18.1742 68.4062 18.1932C68.0767 18.2348 67.7756 18.3049 67.5028 18.4034C67.2339 18.5019 67.018 18.6439 66.8551 18.8295C66.696 19.0114 66.6165 19.2538 66.6165 19.5568C66.6165 19.9773 66.7718 20.2955 67.0824 20.5114C67.393 20.7235 67.7888 20.8295 68.2699 20.8295ZM76.169 10.3636V22H74.4702V10.3636H76.169ZM84.581 10.3636V22H82.8253V10.3636H84.581ZM88.7003 16.8182V22H87.0014V13.2727H88.6321V14.6932H88.7401C88.9408 14.2311 89.2552 13.8598 89.6832 13.5795C90.1151 13.2992 90.6586 13.1591 91.3139 13.1591C91.9086 13.1591 92.4295 13.2841 92.8764 13.5341C93.3234 13.7803 93.67 14.1477 93.9162 14.6364C94.1624 15.125 94.2855 15.7292 94.2855 16.4489V22H92.5866V16.6534C92.5866 16.0208 92.4219 15.5265 92.0923 15.1705C91.7628 14.8106 91.3101 14.6307 90.7344 14.6307C90.3404 14.6307 89.9901 14.7159 89.6832 14.8864C89.3802 15.0568 89.1397 15.3068 88.9616 15.6364C88.7874 15.9621 88.7003 16.3561 88.7003 16.8182ZM100.717 13.2727V14.6364H95.7855V13.2727H100.717ZM97.1378 22V12.2614C97.1378 11.7159 97.2571 11.2633 97.4957 10.9034C97.7344 10.5398 98.0507 10.2689 98.4446 10.0909C98.8385 9.90909 99.2666 9.81818 99.7287 9.81818C100.07 9.81818 100.361 9.84659 100.604 9.90341C100.846 9.95644 101.026 10.0057 101.143 10.0511L100.746 11.4261C100.666 11.4034 100.564 11.3769 100.439 11.3466C100.314 11.3125 100.162 11.2955 99.9844 11.2955C99.5715 11.2955 99.276 11.3977 99.098 11.6023C98.9238 11.8068 98.8366 12.1023 98.8366 12.4886V22H97.1378ZM105.803 22.1761C104.984 22.1761 104.27 21.9886 103.661 21.6136C103.051 21.2386 102.577 20.714 102.24 20.0398C101.903 19.3655 101.734 18.5777 101.734 17.6761C101.734 16.7708 101.903 15.9792 102.24 15.3011C102.577 14.6231 103.051 14.0966 103.661 13.7216C104.27 13.3466 104.984 13.1591 105.803 13.1591C106.621 13.1591 107.335 13.3466 107.945 13.7216C108.554 14.0966 109.028 14.6231 109.365 15.3011C109.702 15.9792 109.871 16.7708 109.871 17.6761C109.871 18.5777 109.702 19.3655 109.365 20.0398C109.028 20.714 108.554 21.2386 107.945 21.6136C107.335 21.9886 106.621 22.1761 105.803 22.1761ZM105.808 20.75C106.339 20.75 106.778 20.6098 107.126 20.3295C107.475 20.0492 107.732 19.6761 107.899 19.2102C108.07 18.7443 108.155 18.2311 108.155 17.6705C108.155 17.1136 108.07 16.6023 107.899 16.1364C107.732 15.6667 107.475 15.2898 107.126 15.0057C106.778 14.7216 106.339 14.5795 105.808 14.5795C105.274 14.5795 104.831 14.7216 104.479 15.0057C104.13 15.2898 103.871 15.6667 103.7 16.1364C103.534 16.6023 103.45 17.1136 103.45 17.6705C103.45 18.2311 103.534 18.7443 103.7 19.2102C103.871 19.6761 104.13 20.0492 104.479 20.3295C104.831 20.6098 105.274 20.75 105.808 20.75Z" fill="#14171F"/>
<rect x="182.5" y="0.5" width="31" height="31" rx="15.5" stroke="#C7C7C7"/>
<path fill-rule="evenodd" clip-rule="evenodd" d="M192.411 19.0158L201.016 10.4108C201.341 10.0858 201.868 10.0858 202.193 10.4108L203.59 11.8075C203.915 12.1325 203.915 12.66 203.59 12.985L194.984 21.5891C194.828 21.7458 194.617 21.8333 194.396 21.8333H192.167V19.6041C192.167 19.3833 192.254 19.1716 192.411 19.0158Z" stroke="#323232" stroke-width="1.5" stroke-linecap="round" stroke-linejoin="round"/>
<path d="M199.458 11.9667L202.033 14.5417" stroke="#323232" stroke-width="1.5" stroke-linecap="round" stroke-linejoin="round"/>
</svg>
