<svg width="144" height="76" viewBox="0 0 144 76" fill="none" xmlns="http://www.w3.org/2000/svg">
<rect x="0.5" y="0.5" width="31" height="31" rx="15.5" stroke="#C7C7C7"/>
<path fill-rule="evenodd" clip-rule="evenodd" d="M10.4109 19.0158L19.0159 10.4108C19.3409 10.0858 19.8684 10.0858 20.1934 10.4108L21.59 11.8075C21.915 12.1325 21.915 12.66 21.59 12.985L12.9842 21.5891C12.8284 21.7458 12.6167 21.8333 12.3959 21.8333H10.1667V19.6041C10.1667 19.3833 10.2542 19.1716 10.4109 19.0158Z" stroke="#323232" stroke-width="1.5" stroke-linecap="round" stroke-linejoin="round"/>
<path d="M17.4583 11.9667L20.0333 14.5417" stroke="#323232" stroke-width="1.5" stroke-linecap="round" stroke-linejoin="round"/>
<path d="M44.6761 7.91193V6.81818H52.3125V7.91193H49.1108V17H47.8778V7.91193H44.6761ZM56.1506 17.1591C55.4148 17.1591 54.7801 16.9967 54.2464 16.6719C53.7161 16.3438 53.3068 15.8864 53.0185 15.2997C52.7334 14.7098 52.5909 14.0237 52.5909 13.2415C52.5909 12.4593 52.7334 11.7699 53.0185 11.1733C53.3068 10.5734 53.7079 10.1061 54.2216 9.77131C54.7386 9.43324 55.3419 9.2642 56.0312 9.2642C56.429 9.2642 56.8217 9.33049 57.2095 9.46307C57.5973 9.59564 57.9503 9.81108 58.2685 10.1094C58.5866 10.4044 58.8402 10.7955 59.0291 11.2827C59.218 11.7699 59.3125 12.3698 59.3125 13.0824V13.5795H53.4261V12.5653H58.1193C58.1193 12.1345 58.0331 11.75 57.8608 11.4119C57.6918 11.0739 57.4498 10.8071 57.1349 10.6115C56.8234 10.416 56.4555 10.3182 56.0312 10.3182C55.5639 10.3182 55.1596 10.4342 54.8182 10.6662C54.4801 10.8949 54.2199 11.1932 54.0376 11.5611C53.8554 11.929 53.7642 12.3234 53.7642 12.7443V13.4205C53.7642 13.9972 53.8636 14.486 54.0625 14.8871C54.2647 15.2848 54.5447 15.5881 54.9027 15.7969C55.2607 16.0024 55.6766 16.1051 56.1506 16.1051C56.4588 16.1051 56.7372 16.062 56.9858 15.9759C57.2377 15.8864 57.4548 15.7538 57.6371 15.5781C57.8194 15.3991 57.9602 15.1771 58.0597 14.9119L59.1932 15.2301C59.0739 15.6146 58.8733 15.9527 58.5916 16.2443C58.3099 16.5327 57.9619 16.758 57.5476 16.9205C57.1333 17.0795 56.6676 17.1591 56.1506 17.1591ZM63.3445 17.179C62.8606 17.179 62.4214 17.0878 62.027 16.9055C61.6326 16.7199 61.3194 16.4531 61.0874 16.1051C60.8554 15.7538 60.7393 15.3295 60.7393 14.8324C60.7393 14.3949 60.8255 14.0402 60.9979 13.7685C61.1702 13.4934 61.4006 13.2779 61.6889 13.1222C61.9773 12.9664 62.2955 12.8504 62.6435 12.7741C62.9948 12.6946 63.3478 12.6316 63.7024 12.5852C64.1664 12.5256 64.5426 12.4808 64.831 12.451C65.1226 12.4179 65.3348 12.3632 65.4673 12.2869C65.6032 12.2107 65.6712 12.0781 65.6712 11.8892V11.8494C65.6712 11.3589 65.5369 10.9777 65.2685 10.706C65.0033 10.4342 64.6006 10.2983 64.0604 10.2983C63.5002 10.2983 63.0611 10.4209 62.7429 10.6662C62.4247 10.9115 62.201 11.1733 62.0717 11.4517L60.9581 11.054C61.157 10.59 61.4221 10.2287 61.7536 9.97017C62.0883 9.70833 62.4529 9.52604 62.8473 9.4233C63.245 9.31723 63.6361 9.2642 64.0206 9.2642C64.2659 9.2642 64.5476 9.29403 64.8658 9.35369C65.1873 9.41004 65.4972 9.5277 65.7955 9.70668C66.0971 9.88565 66.3473 10.1558 66.5462 10.517C66.745 10.8783 66.8445 11.3622 66.8445 11.9688V17H65.6712V15.9659H65.6115C65.532 16.1316 65.3994 16.3089 65.2138 16.4979C65.0282 16.6868 64.7813 16.8475 64.473 16.9801C64.1648 17.1127 63.7886 17.179 63.3445 17.179ZM63.5234 16.125C63.9875 16.125 64.3786 16.0339 64.6967 15.8516C65.0182 15.6693 65.2602 15.4339 65.4226 15.1456C65.5883 14.8572 65.6712 14.554 65.6712 14.2358V13.1619C65.6214 13.2216 65.5121 13.2763 65.343 13.326C65.1773 13.3724 64.9851 13.4138 64.7663 13.4503C64.5509 13.4834 64.3404 13.5133 64.1349 13.5398C63.9328 13.563 63.7687 13.5829 63.6428 13.5994C63.3378 13.6392 63.0528 13.7038 62.7876 13.7933C62.5258 13.8795 62.3137 14.0104 62.1513 14.1861C61.9922 14.3584 61.9126 14.5937 61.9126 14.892C61.9126 15.2997 62.0634 15.608 62.3651 15.8168C62.67 16.0223 63.0561 16.125 63.5234 16.125ZM68.986 17V9.36364H70.1195V10.5568H70.2189C70.378 10.1491 70.6349 9.83262 70.9895 9.60724C71.3442 9.37855 71.7701 9.2642 72.2672 9.2642C72.771 9.2642 73.1903 9.37855 73.525 9.60724C73.8631 9.83262 74.1266 10.1491 74.3155 10.5568H74.3951C74.5906 10.1624 74.8839 9.84919 75.275 9.61719C75.6661 9.38187 76.1351 9.2642 76.682 9.2642C77.3648 9.2642 77.9232 9.47798 78.3574 9.90554C78.7916 10.3298 79.0087 10.991 79.0087 11.8892V17H77.8354V11.8892C77.8354 11.3258 77.6813 10.9231 77.373 10.6811C77.0648 10.4392 76.7019 10.3182 76.2843 10.3182C75.7473 10.3182 75.3314 10.4806 75.0364 10.8054C74.7414 11.1269 74.5939 11.5346 74.5939 12.0284V17H73.4007V11.7699C73.4007 11.3357 73.2599 10.986 72.9782 10.7209C72.6964 10.4524 72.3335 10.3182 71.8894 10.3182C71.5845 10.3182 71.2994 10.3994 71.0343 10.5618C70.7724 10.7242 70.5603 10.9496 70.3979 11.2379C70.2388 11.523 70.1593 11.8527 70.1593 12.2273V17H68.986Z" fill="#666666"/>
<path d="M45.2784 46V34.3636H49.4261C50.3314 34.3636 51.0814 34.5284 51.6761 34.858C52.2708 35.1875 52.7159 35.6383 53.0114 36.2102C53.3068 36.7784 53.4545 37.4186 53.4545 38.1307C53.4545 38.8466 53.3049 39.4905 53.0057 40.0625C52.7102 40.6307 52.2633 41.0814 51.6648 41.4148C51.0701 41.7443 50.322 41.9091 49.4205 41.9091H46.5682V40.4205H49.2614C49.8333 40.4205 50.2973 40.322 50.6534 40.125C51.0095 39.9242 51.2708 39.6515 51.4375 39.3068C51.6042 38.9621 51.6875 38.5701 51.6875 38.1307C51.6875 37.6913 51.6042 37.3011 51.4375 36.9602C51.2708 36.6193 51.0076 36.3523 50.6477 36.1591C50.2917 35.9659 49.822 35.8693 49.2386 35.8693H47.0341V46H45.2784ZM55.3764 46V37.2727H57.0185V38.6591H57.1094C57.2685 38.1894 57.5488 37.8201 57.9503 37.5511C58.3556 37.2784 58.8139 37.142 59.3253 37.142C59.4313 37.142 59.5563 37.1458 59.7003 37.1534C59.848 37.161 59.9635 37.1705 60.0469 37.1818V38.8068C59.9787 38.7879 59.8575 38.767 59.6832 38.7443C59.509 38.7178 59.3348 38.7045 59.1605 38.7045C58.759 38.7045 58.401 38.7898 58.0866 38.9602C57.776 39.1269 57.5298 39.3598 57.348 39.6591C57.1662 39.9545 57.0753 40.2917 57.0753 40.6705V46H55.3764ZM64.8807 46.1761C64.0625 46.1761 63.3485 45.9886 62.7386 45.6136C62.1288 45.2386 61.6553 44.714 61.3182 44.0398C60.9811 43.3655 60.8125 42.5777 60.8125 41.6761C60.8125 40.7708 60.9811 39.9792 61.3182 39.3011C61.6553 38.6231 62.1288 38.0966 62.7386 37.7216C63.3485 37.3466 64.0625 37.1591 64.8807 37.1591C65.6989 37.1591 66.4129 37.3466 67.0227 37.7216C67.6326 38.0966 68.1061 38.6231 68.4432 39.3011C68.7803 39.9792 68.9489 40.7708 68.9489 41.6761C68.9489 42.5777 68.7803 43.3655 68.4432 44.0398C68.1061 44.714 67.6326 45.2386 67.0227 45.6136C66.4129 45.9886 65.6989 46.1761 64.8807 46.1761ZM64.8864 44.75C65.4167 44.75 65.8561 44.6098 66.2045 44.3295C66.553 44.0492 66.8106 43.6761 66.9773 43.2102C67.1477 42.7443 67.233 42.2311 67.233 41.6705C67.233 41.1136 67.1477 40.6023 66.9773 40.1364C66.8106 39.6667 66.553 39.2898 66.2045 39.0057C65.8561 38.7216 65.4167 38.5795 64.8864 38.5795C64.3523 38.5795 63.9091 38.7216 63.5568 39.0057C63.2083 39.2898 62.9489 39.6667 62.7784 40.1364C62.6117 40.6023 62.5284 41.1136 62.5284 41.6705C62.5284 42.2311 62.6117 42.7443 62.7784 43.2102C62.9489 43.6761 63.2083 44.0492 63.5568 44.3295C63.9091 44.6098 64.3523 44.75 64.8864 44.75ZM74.1122 46.1705C73.4077 46.1705 72.7789 45.9905 72.2259 45.6307C71.6766 45.267 71.2448 44.75 70.9304 44.0795C70.6198 43.4053 70.4645 42.5966 70.4645 41.6534C70.4645 40.7102 70.6217 39.9034 70.9361 39.233C71.2543 38.5625 71.6899 38.0492 72.2429 37.6932C72.7959 37.3371 73.4228 37.1591 74.1236 37.1591C74.6652 37.1591 75.1009 37.25 75.4304 37.4318C75.7637 37.6098 76.0213 37.8182 76.2031 38.0568C76.3887 38.2955 76.5327 38.5057 76.6349 38.6875H76.7372V34.3636H78.4361V46H76.777V44.642H76.6349C76.5327 44.8277 76.3849 45.0398 76.1918 45.2784C76.0024 45.517 75.741 45.7254 75.4077 45.9034C75.0743 46.0814 74.6425 46.1705 74.1122 46.1705ZM74.4872 44.7216C74.9759 44.7216 75.3887 44.5928 75.7259 44.3352C76.0668 44.0739 76.3243 43.7121 76.4986 43.25C76.6766 42.7879 76.7656 42.25 76.7656 41.6364C76.7656 41.0303 76.6785 40.5 76.5043 40.0455C76.33 39.5909 76.0743 39.2367 75.7372 38.983C75.4001 38.7292 74.9834 38.6023 74.4872 38.6023C73.9759 38.6023 73.5497 38.7348 73.2088 39C72.8679 39.2652 72.6103 39.6269 72.4361 40.0852C72.2656 40.5436 72.1804 41.0606 72.1804 41.6364C72.1804 42.2197 72.2675 42.7443 72.4418 43.2102C72.616 43.6761 72.8736 44.0455 73.2145 44.3182C73.5592 44.5871 73.9834 44.7216 74.4872 44.7216ZM86.3892 42.3807V37.2727H88.0938V46H86.4233V44.4886H86.3324C86.1316 44.9545 85.8097 45.3428 85.3665 45.6534C84.9271 45.9602 84.3797 46.1136 83.7244 46.1136C83.1638 46.1136 82.6676 45.9905 82.2358 45.7443C81.8078 45.4943 81.4706 45.125 81.2244 44.6364C80.982 44.1477 80.8608 43.5436 80.8608 42.8239V37.2727H82.5597V42.6193C82.5597 43.214 82.7244 43.6875 83.054 44.0398C83.3835 44.392 83.8116 44.5682 84.3381 44.5682C84.6563 44.5682 84.9725 44.4886 85.2869 44.3295C85.6051 44.1705 85.8684 43.9299 86.0767 43.608C86.2888 43.286 86.393 42.8769 86.3892 42.3807ZM94.0526 46.1761C93.2079 46.1761 92.4806 45.9848 91.8707 45.6023C91.2647 45.2159 90.7988 44.6837 90.473 44.0057C90.1473 43.3277 89.9844 42.5511 89.9844 41.6761C89.9844 40.7898 90.151 40.0076 90.4844 39.3295C90.8177 38.6477 91.2874 38.1155 91.8935 37.733C92.4995 37.3504 93.2135 37.1591 94.0355 37.1591C94.6984 37.1591 95.2893 37.2822 95.8082 37.5284C96.3272 37.7708 96.7457 38.1117 97.0639 38.5511C97.3859 38.9905 97.5772 39.5038 97.6378 40.0909H95.9844C95.8935 39.6818 95.6851 39.3295 95.3594 39.0341C95.0374 38.7386 94.6056 38.5909 94.0639 38.5909C93.5904 38.5909 93.1757 38.7159 92.8196 38.9659C92.4673 39.2121 92.1927 39.5644 91.9957 40.0227C91.7988 40.4773 91.7003 41.0152 91.7003 41.6364C91.7003 42.2727 91.7969 42.822 91.9901 43.2841C92.1832 43.7462 92.456 44.1042 92.8082 44.358C93.1643 44.6117 93.5829 44.7386 94.0639 44.7386C94.3859 44.7386 94.6776 44.6799 94.9389 44.5625C95.2041 44.4413 95.4257 44.2689 95.6037 44.0455C95.7855 43.822 95.9124 43.553 95.9844 43.2386H97.6378C97.5772 43.803 97.3935 44.3068 97.0866 44.75C96.7798 45.1932 96.3688 45.5417 95.8537 45.7955C95.3423 46.0492 94.742 46.1761 94.0526 46.1761ZM103.528 37.2727V38.6364H98.7614V37.2727H103.528ZM100.04 35.1818H101.739V43.4375C101.739 43.767 101.788 44.0152 101.886 44.1818C101.985 44.3447 102.112 44.4564 102.267 44.517C102.426 44.5739 102.598 44.6023 102.784 44.6023C102.92 44.6023 103.04 44.5928 103.142 44.5739C103.244 44.5549 103.324 44.5398 103.381 44.5284L103.688 45.9318C103.589 45.9697 103.449 46.0076 103.267 46.0455C103.085 46.0871 102.858 46.1098 102.585 46.1136C102.138 46.1212 101.722 46.0417 101.335 45.875C100.949 45.7083 100.636 45.4508 100.398 45.1023C100.159 44.7538 100.04 44.3163 100.04 43.7898V35.1818ZM111.341 40.8182V46H109.642V34.3636H111.318V38.6932H111.426C111.631 38.2235 111.943 37.8504 112.364 37.5739C112.784 37.2973 113.333 37.1591 114.011 37.1591C114.61 37.1591 115.133 37.2822 115.58 37.5284C116.03 37.7746 116.379 38.142 116.625 38.6307C116.875 39.1155 117 39.7216 117 40.4489V46H115.301V40.6534C115.301 40.0133 115.136 39.517 114.807 39.1648C114.477 38.8087 114.019 38.6307 113.432 38.6307C113.03 38.6307 112.67 38.7159 112.352 38.8864C112.038 39.0568 111.79 39.3068 111.608 39.6364C111.43 39.9621 111.341 40.3561 111.341 40.8182ZM124.795 42.3807V37.2727H126.5V46H124.83V44.4886H124.739C124.538 44.9545 124.216 45.3428 123.773 45.6534C123.333 45.9602 122.786 46.1136 122.131 46.1136C121.57 46.1136 121.074 45.9905 120.642 45.7443C120.214 45.4943 119.877 45.125 119.631 44.6364C119.388 44.1477 119.267 43.5436 119.267 42.8239V37.2727H120.966V42.6193C120.966 43.214 121.131 43.6875 121.46 44.0398C121.79 44.392 122.218 44.5682 122.744 44.5682C123.063 44.5682 123.379 44.4886 123.693 44.3295C124.011 44.1705 124.275 43.9299 124.483 43.608C124.695 43.286 124.799 42.8769 124.795 42.3807ZM130.482 40.8182V46H128.783V37.2727H130.413V38.6932H130.521C130.722 38.2311 131.036 37.8598 131.464 37.5795C131.896 37.2992 132.44 37.1591 133.095 37.1591C133.69 37.1591 134.211 37.2841 134.658 37.5341C135.105 37.7803 135.451 38.1477 135.697 38.6364C135.944 39.125 136.067 39.7292 136.067 40.4489V46H134.368V40.6534C134.368 40.0208 134.203 39.5265 133.874 39.1705C133.544 38.8106 133.091 38.6307 132.516 38.6307C132.122 38.6307 131.771 38.7159 131.464 38.8864C131.161 39.0568 130.921 39.3068 130.743 39.6364C130.569 39.9621 130.482 40.3561 130.482 40.8182ZM142.419 37.2727V38.6364H137.652V37.2727H142.419ZM138.93 35.1818H140.629V43.4375C140.629 43.767 140.679 44.0152 140.777 44.1818C140.875 44.3447 141.002 44.4564 141.158 44.517C141.317 44.5739 141.489 44.6023 141.675 44.6023C141.811 44.6023 141.93 44.5928 142.033 44.5739C142.135 44.5549 142.214 44.5398 142.271 44.5284L142.578 45.9318C142.48 45.9697 142.339 46.0076 142.158 46.0455C141.976 46.0871 141.749 46.1098 141.476 46.1136C141.029 46.1212 140.612 46.0417 140.226 45.875C139.839 45.7083 139.527 45.4508 139.288 45.1023C139.05 44.7538 138.93 44.3163 138.93 43.7898V35.1818Z" fill="#14171F"/>
</svg>
