<svg width="143" height="76" viewBox="0 0 143 76" fill="none" xmlns="http://www.w3.org/2000/svg">
<rect x="0.5" y="0.5" width="31" height="31" rx="15.5" stroke="#C7C7C7"/>
<path fill-rule="evenodd" clip-rule="evenodd" d="M10.4109 19.0158L19.0159 10.4108C19.3409 10.0858 19.8684 10.0858 20.1934 10.4108L21.59 11.8075C21.915 12.1325 21.915 12.66 21.59 12.985L12.9842 21.5891C12.8284 21.7458 12.6167 21.8333 12.3959 21.8333H10.1667V19.6041C10.1667 19.3833 10.2542 19.1716 10.4109 19.0158Z" stroke="#323232" stroke-width="1.5" stroke-linecap="round" stroke-linejoin="round"/>
<path d="M17.4583 11.9667L20.0333 14.5417" stroke="#323232" stroke-width="1.5" stroke-linecap="round" stroke-linejoin="round"/>
<path d="M45.233 17V6.81818H48.6733C49.4688 6.81818 50.1217 6.95407 50.6321 7.22585C51.1425 7.49432 51.5204 7.86387 51.7656 8.33452C52.0109 8.80516 52.1335 9.34044 52.1335 9.94034C52.1335 10.5402 52.0109 11.0722 51.7656 11.5362C51.5204 12.0002 51.1442 12.3648 50.6371 12.63C50.13 12.8918 49.482 13.0227 48.6932 13.0227H45.9091V11.9091H48.6534C49.197 11.9091 49.6345 11.8295 49.9659 11.6705C50.3007 11.5114 50.5426 11.286 50.6918 10.9943C50.8442 10.6993 50.9205 10.348 50.9205 9.94034C50.9205 9.53267 50.8442 9.17637 50.6918 8.87145C50.5393 8.56652 50.2957 8.3312 49.9609 8.16548C49.6262 7.99645 49.1837 7.91193 48.6335 7.91193H46.4659V17H45.233ZM50.0256 12.4261L52.5312 17H51.0994L48.6335 12.4261H50.0256ZM57.1486 17.1591C56.4128 17.1591 55.7781 16.9967 55.2445 16.6719C54.7142 16.3438 54.3049 15.8864 54.0165 15.2997C53.7315 14.7098 53.589 14.0237 53.589 13.2415C53.589 12.4593 53.7315 11.7699 54.0165 11.1733C54.3049 10.5734 54.7059 10.1061 55.2196 9.77131C55.7367 9.43324 56.3399 9.2642 57.0293 9.2642C57.427 9.2642 57.8198 9.33049 58.2076 9.46307C58.5953 9.59564 58.9483 9.81108 59.2665 10.1094C59.5847 10.4044 59.8382 10.7955 60.0272 11.2827C60.2161 11.7699 60.3105 12.3698 60.3105 13.0824V13.5795H54.4242V12.5653H59.1174C59.1174 12.1345 59.0312 11.75 58.8588 11.4119C58.6898 11.0739 58.4479 10.8071 58.133 10.6115C57.8214 10.416 57.4535 10.3182 57.0293 10.3182C56.562 10.3182 56.1576 10.4342 55.8162 10.6662C55.4782 10.8949 55.218 11.1932 55.0357 11.5611C54.8534 11.929 54.7623 12.3234 54.7623 12.7443V13.4205C54.7623 13.9972 54.8617 14.486 55.0605 14.8871C55.2627 15.2848 55.5428 15.5881 55.9007 15.7969C56.2587 16.0024 56.6747 16.1051 57.1486 16.1051C57.4569 16.1051 57.7353 16.062 57.9838 15.9759C58.2357 15.8864 58.4528 15.7538 58.6351 15.5781C58.8174 15.3991 58.9583 15.1771 59.0577 14.9119L60.1912 15.2301C60.0719 15.6146 59.8714 15.9527 59.5897 16.2443C59.3079 16.5327 58.9599 16.758 58.5456 16.9205C58.1313 17.0795 57.6657 17.1591 57.1486 17.1591ZM65.1777 20.0227C64.611 20.0227 64.1238 19.9498 63.7161 19.804C63.3084 19.6615 62.9687 19.4725 62.6969 19.2372C62.4284 19.0052 62.2147 18.7566 62.0556 18.4915L62.9902 17.8352C63.0963 17.9744 63.2305 18.1335 63.3929 18.3125C63.5553 18.4948 63.7774 18.6522 64.0591 18.7848C64.3442 18.9207 64.717 18.9886 65.1777 18.9886C65.7942 18.9886 66.303 18.8395 66.704 18.5412C67.1051 18.2429 67.3056 17.7756 67.3056 17.1392V15.5881H67.2061C67.12 15.7273 66.9973 15.8996 66.8382 16.1051C66.6825 16.3073 66.4571 16.4879 66.1621 16.647C65.8704 16.8028 65.476 16.8807 64.9789 16.8807C64.3624 16.8807 63.8089 16.7348 63.3184 16.4432C62.8311 16.1515 62.445 15.7273 62.16 15.1705C61.8783 14.6136 61.7374 13.9375 61.7374 13.142C61.7374 12.3598 61.8749 11.6787 62.15 11.0987C62.4251 10.5154 62.8079 10.0646 63.2985 9.74645C63.789 9.42495 64.3558 9.2642 64.9988 9.2642C65.4959 9.2642 65.8903 9.34706 66.182 9.51278C66.477 9.67519 66.7024 9.8608 66.8581 10.0696C67.0172 10.2751 67.1399 10.4441 67.226 10.5767H67.3453V9.36364H68.4789V17.2188C68.4789 17.875 68.3297 18.4086 68.0314 18.8196C67.7364 19.2339 67.3387 19.5372 66.8382 19.7294C66.3411 19.925 65.7876 20.0227 65.1777 20.0227ZM65.138 15.8267C65.6086 15.8267 66.0063 15.719 66.3311 15.5036C66.656 15.2881 66.9029 14.9782 67.0719 14.5739C67.2409 14.1695 67.3255 13.6856 67.3255 13.1222C67.3255 12.572 67.2426 12.0864 67.0769 11.6655C66.9112 11.2446 66.6659 10.9148 66.3411 10.6761C66.0163 10.4375 65.6152 10.3182 65.138 10.3182C64.6408 10.3182 64.2265 10.4441 63.8951 10.696C63.5669 10.9479 63.32 11.286 63.1543 11.7102C62.9919 12.1345 62.9107 12.6051 62.9107 13.1222C62.9107 13.6525 62.9935 14.1214 63.1593 14.5291C63.3283 14.9335 63.5769 15.2517 63.905 15.4837C64.2364 15.7124 64.6474 15.8267 65.138 15.8267ZM71.4817 17.0795C71.2364 17.0795 71.026 16.9917 70.8503 16.8161C70.6747 16.6404 70.5868 16.4299 70.5868 16.1847C70.5868 15.9394 70.6747 15.7289 70.8503 15.5533C71.026 15.3776 71.2364 15.2898 71.4817 15.2898C71.727 15.2898 71.9374 15.3776 72.1131 15.5533C72.2888 15.7289 72.3766 15.9394 72.3766 16.1847C72.3766 16.3471 72.3352 16.4962 72.2523 16.6321C72.1728 16.768 72.065 16.8774 71.9292 16.9602C71.7966 17.0398 71.6474 17.0795 71.4817 17.0795ZM81.7207 17H78.5787V6.81818H81.8599C82.8476 6.81818 83.6928 7.02202 84.3954 7.42969C85.0981 7.83404 85.6367 8.41572 86.0112 9.17472C86.3857 9.9304 86.573 10.8352 86.573 11.8892C86.573 12.9498 86.3841 13.8629 86.0062 14.6286C85.6284 15.3909 85.0782 15.9775 84.3556 16.3885C83.6331 16.7962 82.7548 17 81.7207 17ZM79.8116 15.9062H81.6412C82.483 15.9062 83.1807 15.7438 83.7342 15.419C84.2877 15.0942 84.7003 14.6319 84.9721 14.032C85.2439 13.4321 85.3798 12.7178 85.3798 11.8892C85.3798 11.0672 85.2456 10.3596 84.9771 9.76633C84.7086 9.16974 84.3076 8.71236 83.774 8.39418C83.2404 8.07268 82.5758 7.91193 81.7804 7.91193H79.8116V15.9062ZM90.7292 17.179C90.2453 17.179 89.8062 17.0878 89.4118 16.9055C89.0173 16.7199 88.7041 16.4531 88.4721 16.1051C88.2401 15.7538 88.1241 15.3295 88.1241 14.8324C88.1241 14.3949 88.2103 14.0402 88.3826 13.7685C88.555 13.4934 88.7853 13.2779 89.0737 13.1222C89.362 12.9664 89.6802 12.8504 90.0282 12.7741C90.3796 12.6946 90.7325 12.6316 91.0872 12.5852C91.5512 12.5256 91.9274 12.4808 92.2157 12.451C92.5074 12.4179 92.7195 12.3632 92.8521 12.2869C92.988 12.2107 93.0559 12.0781 93.0559 11.8892V11.8494C93.0559 11.3589 92.9217 10.9777 92.6532 10.706C92.3881 10.4342 91.9854 10.2983 91.4451 10.2983C90.885 10.2983 90.4458 10.4209 90.1277 10.6662C89.8095 10.9115 89.5858 11.1733 89.4565 11.4517L88.3429 11.054C88.5417 10.59 88.8069 10.2287 89.1383 9.97017C89.4731 9.70833 89.8377 9.52604 90.2321 9.4233C90.6298 9.31723 91.0209 9.2642 91.4054 9.2642C91.6506 9.2642 91.9324 9.29403 92.2505 9.35369C92.572 9.41004 92.8819 9.5277 93.1802 9.70668C93.4818 9.88565 93.7321 10.1558 93.9309 10.517C94.1298 10.8783 94.2292 11.3622 94.2292 11.9688V17H93.0559V15.9659H92.9963C92.9167 16.1316 92.7842 16.3089 92.5985 16.4979C92.4129 16.6868 92.166 16.8475 91.8578 16.9801C91.5495 17.1127 91.1734 17.179 90.7292 17.179ZM90.9082 16.125C91.3722 16.125 91.7633 16.0339 92.0815 15.8516C92.403 15.6693 92.6449 15.4339 92.8074 15.1456C92.9731 14.8572 93.0559 14.554 93.0559 14.2358V13.1619C93.0062 13.2216 92.8968 13.2763 92.7278 13.326C92.5621 13.3724 92.3699 13.4138 92.1511 13.4503C91.9357 13.4834 91.7252 13.5133 91.5197 13.5398C91.3175 13.563 91.1535 13.5829 91.0275 13.5994C90.7226 13.6392 90.4376 13.7038 90.1724 13.7933C89.9106 13.8795 89.6984 14.0104 89.536 14.1861C89.377 14.3584 89.2974 14.5937 89.2974 14.892C89.2974 15.2997 89.4482 15.608 89.7498 15.8168C90.0547 16.0223 90.4409 16.125 90.9082 16.125ZM99.6918 9.36364V10.358H95.7344V9.36364H99.6918ZM96.8878 7.53409H98.0611V14.8125C98.0611 15.1439 98.1091 15.3925 98.2053 15.5582C98.3047 15.7206 98.4306 15.83 98.5831 15.8864C98.7389 15.9394 98.9029 15.9659 99.0753 15.9659C99.2045 15.9659 99.3106 15.9593 99.3935 15.946C99.4763 15.9295 99.5426 15.9162 99.5923 15.9062L99.831 16.9602C99.7514 16.9901 99.6404 17.0199 99.4979 17.0497C99.3554 17.0829 99.1747 17.0994 98.956 17.0994C98.6245 17.0994 98.2997 17.0282 97.9815 16.8857C97.6667 16.7431 97.4048 16.526 97.196 16.2344C96.9905 15.9427 96.8878 15.5748 96.8878 15.1307V7.53409ZM104.576 17.1591C103.841 17.1591 103.206 16.9967 102.672 16.6719C102.142 16.3438 101.733 15.8864 101.444 15.2997C101.159 14.7098 101.017 14.0237 101.017 13.2415C101.017 12.4593 101.159 11.7699 101.444 11.1733C101.733 10.5734 102.134 10.1061 102.647 9.77131C103.164 9.43324 103.768 9.2642 104.457 9.2642C104.855 9.2642 105.248 9.33049 105.635 9.46307C106.023 9.59564 106.376 9.81108 106.694 10.1094C107.012 10.4044 107.266 10.7955 107.455 11.2827C107.644 11.7699 107.738 12.3698 107.738 13.0824V13.5795H101.852V12.5653H106.545C106.545 12.1345 106.459 11.75 106.287 11.4119C106.118 11.0739 105.876 10.8071 105.561 10.6115C105.249 10.416 104.881 10.3182 104.457 10.3182C103.99 10.3182 103.585 10.4342 103.244 10.6662C102.906 10.8949 102.646 11.1932 102.463 11.5611C102.281 11.929 102.19 12.3234 102.19 12.7443V13.4205C102.19 13.9972 102.289 14.486 102.488 14.8871C102.69 15.2848 102.971 15.5881 103.328 15.7969C103.686 16.0024 104.102 16.1051 104.576 16.1051C104.885 16.1051 105.163 16.062 105.412 15.9759C105.663 15.8864 105.881 15.7538 106.063 15.5781C106.245 15.3991 106.386 15.1771 106.485 14.9119L107.619 15.2301C107.5 15.6146 107.299 15.9527 107.017 16.2443C106.736 16.5327 106.388 16.758 105.973 16.9205C105.559 17.0795 105.093 17.1591 104.576 17.1591Z" fill="#666666"/>
<path d="M46.2614 46H44.3977L48.5852 34.3636H50.6136L54.8011 46H52.9375L49.6477 36.4773H49.5568L46.2614 46ZM46.5739 41.4432H52.6193V42.9205H46.5739V41.4432ZM61.8736 42.3807V37.2727H63.5781V46H61.9077V44.4886H61.8168C61.616 44.9545 61.294 45.3428 60.8509 45.6534C60.4115 45.9602 59.8641 46.1136 59.2088 46.1136C58.6482 46.1136 58.152 45.9905 57.7202 45.7443C57.2921 45.4943 56.955 45.125 56.7088 44.6364C56.4664 44.1477 56.3452 43.5436 56.3452 42.8239V37.2727H58.044V42.6193C58.044 43.214 58.2088 43.6875 58.5384 44.0398C58.8679 44.392 59.2959 44.5682 59.8224 44.5682C60.1406 44.5682 60.4569 44.4886 60.7713 44.3295C61.0895 44.1705 61.3527 43.9299 61.5611 43.608C61.7732 43.286 61.8774 42.8769 61.8736 42.3807ZM69.5199 49.4545C68.8267 49.4545 68.2301 49.3636 67.7301 49.1818C67.2339 49 66.8286 48.7595 66.5142 48.4602C66.1998 48.161 65.965 47.8333 65.8097 47.4773L67.2699 46.875C67.3722 47.0417 67.5085 47.2178 67.679 47.4034C67.8532 47.5928 68.0881 47.7538 68.3835 47.8864C68.6828 48.0189 69.0672 48.0852 69.5369 48.0852C70.1809 48.0852 70.7131 47.928 71.1335 47.6136C71.554 47.303 71.7642 46.8068 71.7642 46.125V44.4091H71.6562C71.554 44.5947 71.4063 44.8011 71.2131 45.0284C71.0237 45.2557 70.7623 45.4527 70.429 45.6193C70.0956 45.786 69.6619 45.8693 69.1278 45.8693C68.4384 45.8693 67.8172 45.7083 67.2642 45.3864C66.715 45.0606 66.2794 44.5814 65.9574 43.9489C65.6392 43.3125 65.4801 42.5303 65.4801 41.6023C65.4801 40.6742 65.6373 39.8788 65.9517 39.2159C66.2699 38.553 66.7055 38.0455 67.2585 37.6932C67.8116 37.3371 68.4384 37.1591 69.1392 37.1591C69.6809 37.1591 70.1184 37.25 70.4517 37.4318C70.785 37.6098 71.0445 37.8182 71.2301 38.0568C71.4195 38.2955 71.5653 38.5057 71.6676 38.6875H71.7926V37.2727H73.4574V46.1932C73.4574 46.9432 73.2831 47.5587 72.9347 48.0398C72.5862 48.5208 72.1146 48.8769 71.5199 49.108C70.929 49.339 70.2623 49.4545 69.5199 49.4545ZM69.5028 44.4602C69.9915 44.4602 70.4044 44.3466 70.7415 44.1193C71.0824 43.8883 71.34 43.5587 71.5142 43.1307C71.6922 42.6989 71.7812 42.1818 71.7812 41.5795C71.7812 40.9924 71.6941 40.4754 71.5199 40.0284C71.3456 39.5814 71.09 39.233 70.7528 38.983C70.4157 38.7292 69.9991 38.6023 69.5028 38.6023C68.9915 38.6023 68.5653 38.7348 68.2244 39C67.8835 39.2614 67.6259 39.6174 67.4517 40.0682C67.2813 40.5189 67.196 41.0227 67.196 41.5795C67.196 42.1515 67.2831 42.6534 67.4574 43.0852C67.6316 43.517 67.8892 43.8542 68.2301 44.0966C68.5748 44.339 68.9991 44.4602 69.5028 44.4602ZM84.3622 34.3636V46H82.6009V36.125H82.5327L79.7486 37.9432V36.2614L82.652 34.3636H84.3622ZM91.3509 46.1591C90.6387 46.1591 89.9986 46.0227 89.4304 45.75C88.866 45.4735 88.4152 45.0947 88.0781 44.6136C87.741 44.1326 87.5611 43.5833 87.5384 42.9659H89.2429C89.2846 43.4659 89.5062 43.8769 89.9077 44.1989C90.3092 44.5208 90.7902 44.6818 91.3509 44.6818C91.7978 44.6818 92.1937 44.5795 92.5384 44.375C92.8868 44.1667 93.1596 43.8807 93.3565 43.517C93.5573 43.1534 93.6577 42.7386 93.6577 42.2727C93.6577 41.7992 93.5554 41.3769 93.3509 41.0057C93.1463 40.6345 92.8641 40.3428 92.5043 40.1307C92.1482 39.9186 91.7391 39.8106 91.277 39.8068C90.9247 39.8068 90.5705 39.8674 90.2145 39.9886C89.8584 40.1098 89.5705 40.2689 89.3509 40.4659L87.7429 40.2273L88.3963 34.3636H94.794V35.8693H89.8565L89.4872 39.125H89.5554C89.7827 38.9053 90.0838 38.7216 90.4588 38.5739C90.8376 38.4261 91.2429 38.3523 91.6747 38.3523C92.383 38.3523 93.0137 38.5208 93.5668 38.858C94.1236 39.1951 94.5611 39.6553 94.8793 40.2386C95.2012 40.8182 95.3603 41.4848 95.3565 42.2386C95.3603 42.9924 95.1899 43.6648 94.8452 44.2557C94.5043 44.8466 94.0308 45.3125 93.4247 45.6534C92.8224 45.9905 92.1312 46.1591 91.3509 46.1591ZM99.2429 44.4091L99.1577 45.0284C99.1009 45.483 99.0043 45.9564 98.8679 46.4489C98.7353 46.9451 98.5971 47.4053 98.4531 47.8295C98.313 48.2538 98.1974 48.5909 98.1065 48.8409H96.902C96.9512 48.6061 97.0194 48.2879 97.1065 47.8864C97.1937 47.4886 97.2789 47.0436 97.3622 46.5511C97.4455 46.0587 97.508 45.5568 97.5497 45.0455L97.6065 44.4091H99.2429ZM105.666 46V44.7273L109.604 40.6477C110.024 40.2045 110.371 39.8163 110.643 39.483C110.92 39.1458 111.126 38.8258 111.263 38.5227C111.399 38.2197 111.467 37.8977 111.467 37.5568C111.467 37.1705 111.376 36.8371 111.195 36.5568C111.013 36.2727 110.765 36.0549 110.45 35.9034C110.136 35.7481 109.782 35.6705 109.388 35.6705C108.971 35.6705 108.607 35.7557 108.297 35.9261C107.986 36.0966 107.748 36.3371 107.581 36.6477C107.414 36.9583 107.331 37.322 107.331 37.7386H105.655C105.655 37.0303 105.818 36.411 106.143 35.8807C106.469 35.3504 106.916 34.9394 107.484 34.6477C108.053 34.3523 108.698 34.2045 109.422 34.2045C110.153 34.2045 110.797 34.3504 111.354 34.642C111.914 34.9299 112.352 35.3239 112.666 35.8239C112.981 36.3201 113.138 36.8807 113.138 37.5057C113.138 37.9375 113.056 38.3598 112.893 38.7727C112.734 39.1856 112.456 39.6458 112.058 40.1534C111.661 40.6572 111.107 41.2689 110.399 41.9886L108.087 44.4091V44.4943H113.325V46H105.666ZM119.53 46.1932C118.632 46.1894 117.865 45.9527 117.229 45.483C116.592 45.0133 116.106 44.3295 115.768 43.4318C115.431 42.5341 115.263 41.4527 115.263 40.1875C115.263 38.9261 115.431 37.8485 115.768 36.9545C116.109 36.0606 116.598 35.3788 117.234 34.9091C117.875 34.4394 118.64 34.2045 119.53 34.2045C120.42 34.2045 121.183 34.4413 121.82 34.9148C122.456 35.3845 122.943 36.0663 123.28 36.9602C123.621 37.8504 123.791 38.9261 123.791 40.1875C123.791 41.4564 123.623 42.5398 123.286 43.4375C122.948 44.3314 122.462 45.0152 121.825 45.4886C121.189 45.9583 120.424 46.1932 119.53 46.1932ZM119.53 44.6761C120.318 44.6761 120.933 44.2917 121.376 43.5227C121.823 42.7538 122.047 41.642 122.047 40.1875C122.047 39.2216 121.945 38.4053 121.74 37.7386C121.539 37.0682 121.25 36.5606 120.871 36.2159C120.496 35.8674 120.049 35.6932 119.53 35.6932C118.746 35.6932 118.13 36.0795 117.683 36.8523C117.236 37.625 117.011 38.7367 117.007 40.1875C117.007 41.1572 117.107 41.9773 117.308 42.6477C117.513 43.3144 117.803 43.8201 118.178 44.1648C118.553 44.5057 119.003 44.6761 119.53 44.6761ZM130.222 34.3636V46H128.46V36.125H128.392L125.608 37.9432V36.2614L128.511 34.3636H130.222ZM133.369 46V44.7273L137.307 40.6477C137.727 40.2045 138.074 39.8163 138.347 39.483C138.623 39.1458 138.83 38.8258 138.966 38.5227C139.102 38.2197 139.17 37.8977 139.17 37.5568C139.17 37.1705 139.08 36.8371 138.898 36.5568C138.716 36.2727 138.468 36.0549 138.153 35.9034C137.839 35.7481 137.485 35.6705 137.091 35.6705C136.674 35.6705 136.311 35.7557 136 35.9261C135.689 36.0966 135.451 36.3371 135.284 36.6477C135.117 36.9583 135.034 37.322 135.034 37.7386H133.358C133.358 37.0303 133.521 36.411 133.847 35.8807C134.172 35.3504 134.619 34.9394 135.188 34.6477C135.756 34.3523 136.402 34.2045 137.125 34.2045C137.856 34.2045 138.5 34.3504 139.057 34.642C139.617 34.9299 140.055 35.3239 140.369 35.8239C140.684 36.3201 140.841 36.8807 140.841 37.5057C140.841 37.9375 140.759 38.3598 140.597 38.7727C140.438 39.1856 140.159 39.6458 139.761 40.1534C139.364 40.6572 138.811 41.2689 138.102 41.9886L135.79 44.4091V44.4943H141.028V46H133.369Z" fill="#14171F"/>
</svg>
