<svg width="282" height="32" viewBox="0 0 282 32" fill="none" xmlns="http://www.w3.org/2000/svg">
<path d="M1.27841 22V10.3636H3.03409V20.4886H8.30682V22H1.27841ZM13.8494 22.1761C13.0313 22.1761 12.3172 21.9886 11.7074 21.6136C11.0975 21.2386 10.6241 20.714 10.2869 20.0398C9.94981 19.3655 9.78125 18.5777 9.78125 17.6761C9.78125 16.7708 9.94981 15.9792 10.2869 15.3011C10.6241 14.6231 11.0975 14.0966 11.7074 13.7216C12.3172 13.3466 13.0313 13.1591 13.8494 13.1591C14.6676 13.1591 15.3816 13.3466 15.9915 13.7216C16.6013 14.0966 17.0748 14.6231 17.4119 15.3011C17.7491 15.9792 17.9176 16.7708 17.9176 17.6761C17.9176 18.5777 17.7491 19.3655 17.4119 20.0398C17.0748 20.714 16.6013 21.2386 15.9915 21.6136C15.3816 21.9886 14.6676 22.1761 13.8494 22.1761ZM13.8551 20.75C14.3854 20.75 14.8248 20.6098 15.1733 20.3295C15.5218 20.0492 15.7794 19.6761 15.946 19.2102C16.1165 18.7443 16.2017 18.2311 16.2017 17.6705C16.2017 17.1136 16.1165 16.6023 15.946 16.1364C15.7794 15.6667 15.5218 15.2898 15.1733 15.0057C14.8248 14.7216 14.3854 14.5795 13.8551 14.5795C13.321 14.5795 12.8778 14.7216 12.5256 15.0057C12.1771 15.2898 11.9176 15.6667 11.7472 16.1364C11.5805 16.6023 11.4972 17.1136 11.4972 17.6705C11.4972 18.2311 11.5805 18.7443 11.7472 19.2102C11.9176 19.6761 12.1771 20.0492 12.5256 20.3295C12.8778 20.6098 13.321 20.75 13.8551 20.75ZM23.4901 22.1761C22.6454 22.1761 21.9181 21.9848 21.3082 21.6023C20.7022 21.2159 20.2363 20.6837 19.9105 20.0057C19.5848 19.3277 19.4219 18.5511 19.4219 17.6761C19.4219 16.7898 19.5885 16.0076 19.9219 15.3295C20.2552 14.6477 20.7249 14.1155 21.331 13.733C21.937 13.3504 22.651 13.1591 23.473 13.1591C24.1359 13.1591 24.7268 13.2822 25.2457 13.5284C25.7647 13.7708 26.1832 14.1117 26.5014 14.5511C26.8234 14.9905 27.0147 15.5038 27.0753 16.0909H25.4219C25.331 15.6818 25.1226 15.3295 24.7969 15.0341C24.4749 14.7386 24.0431 14.5909 23.5014 14.5909C23.0279 14.5909 22.6132 14.7159 22.2571 14.9659C21.9048 15.2121 21.6302 15.5644 21.4332 16.0227C21.2363 16.4773 21.1378 17.0152 21.1378 17.6364C21.1378 18.2727 21.2344 18.822 21.4276 19.2841C21.6207 19.7462 21.8935 20.1042 22.2457 20.358C22.6018 20.6117 23.0204 20.7386 23.5014 20.7386C23.8234 20.7386 24.1151 20.6799 24.3764 20.5625C24.6416 20.4413 24.8632 20.2689 25.0412 20.0455C25.223 19.822 25.3499 19.553 25.4219 19.2386H27.0753C27.0147 19.803 26.831 20.3068 26.5241 20.75C26.2173 21.1932 25.8063 21.5417 25.2912 21.7955C24.7798 22.0492 24.1795 22.1761 23.4901 22.1761ZM31.4318 22.1932C30.8788 22.1932 30.3788 22.0909 29.9318 21.8864C29.4848 21.678 29.1307 21.3769 28.8693 20.983C28.6117 20.589 28.483 20.1061 28.483 19.5341C28.483 19.0417 28.5777 18.6364 28.767 18.3182C28.9564 18 29.2121 17.7481 29.5341 17.5625C29.8561 17.3769 30.2159 17.2367 30.6136 17.142C31.0114 17.0473 31.4167 16.9754 31.8295 16.9261C32.3523 16.8655 32.7765 16.8163 33.1023 16.7784C33.428 16.7367 33.6648 16.6705 33.8125 16.5795C33.9602 16.4886 34.0341 16.3409 34.0341 16.1364V16.0966C34.0341 15.6004 33.8939 15.2159 33.6136 14.9432C33.3371 14.6705 32.9242 14.5341 32.375 14.5341C31.803 14.5341 31.3523 14.661 31.0227 14.9148C30.697 15.1648 30.4716 15.4432 30.3466 15.75L28.75 15.3864C28.9394 14.8561 29.2159 14.428 29.5795 14.1023C29.947 13.7727 30.3693 13.5341 30.8466 13.3864C31.3239 13.2348 31.8258 13.1591 32.3523 13.1591C32.7008 13.1591 33.0701 13.2008 33.4602 13.2841C33.8542 13.3636 34.2216 13.5114 34.5625 13.7273C34.9072 13.9432 35.1894 14.2519 35.4091 14.6534C35.6288 15.0511 35.7386 15.5682 35.7386 16.2045V22H34.0795V20.8068H34.0114C33.9015 21.0265 33.7367 21.2424 33.517 21.4545C33.2973 21.6667 33.0152 21.8428 32.6705 21.983C32.3258 22.1231 31.9129 22.1932 31.4318 22.1932ZM31.8011 20.8295C32.2708 20.8295 32.6723 20.7367 33.0057 20.5511C33.3428 20.3655 33.5985 20.1231 33.7727 19.8239C33.9508 19.5208 34.0398 19.197 34.0398 18.8523V17.7273C33.9792 17.7879 33.8617 17.8447 33.6875 17.8977C33.517 17.947 33.322 17.9905 33.1023 18.0284C32.8826 18.0625 32.6686 18.0947 32.4602 18.125C32.2519 18.1515 32.0777 18.1742 31.9375 18.1932C31.608 18.2348 31.3068 18.3049 31.0341 18.4034C30.7652 18.5019 30.5492 18.6439 30.3864 18.8295C30.2273 19.0114 30.1477 19.2538 30.1477 19.5568C30.1477 19.9773 30.303 20.2955 30.6136 20.5114C30.9242 20.7235 31.3201 20.8295 31.8011 20.8295ZM42.0753 13.2727V14.6364H37.3082V13.2727H42.0753ZM38.5866 11.1818H40.2855V19.4375C40.2855 19.767 40.3348 20.0152 40.4332 20.1818C40.5317 20.3447 40.6586 20.4564 40.8139 20.517C40.973 20.5739 41.1454 20.6023 41.331 20.6023C41.4673 20.6023 41.5866 20.5928 41.6889 20.5739C41.7912 20.5549 41.8707 20.5398 41.9276 20.5284L42.2344 21.9318C42.1359 21.9697 41.9957 22.0076 41.8139 22.0455C41.6321 22.0871 41.4048 22.1098 41.1321 22.1136C40.6851 22.1212 40.2685 22.0417 39.8821 21.875C39.4957 21.7083 39.1832 21.4508 38.9446 21.1023C38.706 20.7538 38.5866 20.3163 38.5866 19.7898V11.1818ZM43.9545 22V13.2727H45.6534V22H43.9545ZM44.8125 11.9261C44.517 11.9261 44.2633 11.8277 44.0511 11.6307C43.8428 11.4299 43.7386 11.1913 43.7386 10.9148C43.7386 10.6345 43.8428 10.3958 44.0511 10.1989C44.2633 9.99811 44.517 9.89773 44.8125 9.89773C45.108 9.89773 45.3598 9.99811 45.5682 10.1989C45.7803 10.3958 45.8864 10.6345 45.8864 10.9148C45.8864 11.1913 45.7803 11.4299 45.5682 11.6307C45.3598 11.8277 45.108 11.9261 44.8125 11.9261ZM51.6151 22.1761C50.7969 22.1761 50.0829 21.9886 49.473 21.6136C48.8632 21.2386 48.3897 20.714 48.0526 20.0398C47.7154 19.3655 47.5469 18.5777 47.5469 17.6761C47.5469 16.7708 47.7154 15.9792 48.0526 15.3011C48.3897 14.6231 48.8632 14.0966 49.473 13.7216C50.0829 13.3466 50.7969 13.1591 51.6151 13.1591C52.4332 13.1591 53.1473 13.3466 53.7571 13.7216C54.367 14.0966 54.8404 14.6231 55.1776 15.3011C55.5147 15.9792 55.6832 16.7708 55.6832 17.6761C55.6832 18.5777 55.5147 19.3655 55.1776 20.0398C54.8404 20.714 54.367 21.2386 53.7571 21.6136C53.1473 21.9886 52.4332 22.1761 51.6151 22.1761ZM51.6207 20.75C52.151 20.75 52.5904 20.6098 52.9389 20.3295C53.2874 20.0492 53.545 19.6761 53.7116 19.2102C53.8821 18.7443 53.9673 18.2311 53.9673 17.6705C53.9673 17.1136 53.8821 16.6023 53.7116 16.1364C53.545 15.6667 53.2874 15.2898 52.9389 15.0057C52.5904 14.7216 52.151 14.5795 51.6207 14.5795C51.0866 14.5795 50.6435 14.7216 50.2912 15.0057C49.9427 15.2898 49.6832 15.6667 49.5128 16.1364C49.3461 16.6023 49.2628 17.1136 49.2628 17.6705C49.2628 18.2311 49.3461 18.7443 49.5128 19.2102C49.6832 19.6761 49.9427 20.0492 50.2912 20.3295C50.6435 20.6098 51.0866 20.75 51.6207 20.75ZM59.2784 16.8182V22H57.5795V13.2727H59.2102V14.6932H59.3182C59.5189 14.2311 59.8333 13.8598 60.2614 13.5795C60.6932 13.2992 61.2367 13.1591 61.892 13.1591C62.4867 13.1591 63.0076 13.2841 63.4545 13.5341C63.9015 13.7803 64.2481 14.1477 64.4943 14.6364C64.7405 15.125 64.8636 15.7292 64.8636 16.4489V22H63.1648V16.6534C63.1648 16.0208 63 15.5265 62.6705 15.1705C62.3409 14.8106 61.8883 14.6307 61.3125 14.6307C60.9186 14.6307 60.5682 14.7159 60.2614 14.8864C59.9583 15.0568 59.7178 15.3068 59.5398 15.6364C59.3655 15.9621 59.2784 16.3561 59.2784 16.8182Z" fill="#2F2F2F"/>
<rect x="250.5" y="0.5" width="31" height="31" rx="15.5" stroke="#C7C7C7"/>
<path d="M261.833 16H270.167" stroke="#323232" stroke-width="1.5" stroke-linecap="round" stroke-linejoin="round"/>
<path d="M266 20.1666V11.8333" stroke="#323232" stroke-width="1.5" stroke-linecap="round" stroke-linejoin="round"/>
</svg>
