<svg width="32" height="72" viewBox="0 0 32 72" fill="none" xmlns="http://www.w3.org/2000/svg">
<rect x="0.5" y="0.5" width="31" height="31" rx="15.5" stroke="#C7C7C7"/>
<path fill-rule="evenodd" clip-rule="evenodd" d="M10.4108 19.0158L19.0158 10.4108C19.3408 10.0858 19.8683 10.0858 20.1933 10.4108L21.59 11.8075C21.915 12.1325 21.915 12.66 21.59 12.985L12.9841 21.5892C12.8283 21.7458 12.6166 21.8333 12.3958 21.8333H10.1666V19.6042C10.1666 19.3833 10.2541 19.1717 10.4108 19.0158Z" stroke="#323232" stroke-width="1.5" stroke-linecap="round" stroke-linejoin="round"/>
<path d="M17.4584 11.9667L20.0334 14.5417" stroke="#323232" stroke-width="1.5" stroke-linecap="round" stroke-linejoin="round"/>
<rect x="0.5" y="40.5" width="31" height="31" rx="15.5" stroke="#C7C7C7"/>
<path d="M16 48.5C20.1517 48.5 23.5 51.8483 23.5 56C23.5 60.1517 20.1517 63.5 16 63.5" stroke="#323232" stroke-width="1.5" stroke-linecap="round" stroke-linejoin="round"/>
<path d="M16 63.5C11.8483 63.5 8.5 60.1517 8.5 56C8.5 51.8483 11.8483 48.5 16 48.5" stroke="#323232" stroke-width="1.5" stroke-linecap="round" stroke-linejoin="round"/>
<path fill-rule="evenodd" clip-rule="evenodd" d="M14.4734 49.3833C12.065 53.4042 12.065 58.5967 14.4734 62.6175C15.1784 63.795 16.8225 63.795 17.5275 62.6175C19.9359 58.5967 19.9359 53.4042 17.5275 49.3833C16.8217 48.2058 15.1784 48.2058 14.4734 49.3833Z" stroke="#323232" stroke-width="1.5" stroke-linecap="round" stroke-linejoin="round"/>
<path d="M8.5 56H23.5" stroke="#323232" stroke-width="1.5" stroke-linecap="round" stroke-linejoin="round"/>
</svg>
