<svg width="146" height="76" viewBox="0 0 146 76" fill="none" xmlns="http://www.w3.org/2000/svg">
<rect x="0.5" y="0.5" width="31" height="31" rx="15.5" stroke="#C7C7C7"/>
<path fill-rule="evenodd" clip-rule="evenodd" d="M10.4108 19.0158L19.0158 10.4108C19.3408 10.0858 19.8683 10.0858 20.1933 10.4108L21.59 11.8075C21.915 12.1325 21.915 12.66 21.59 12.985L12.9842 21.5891C12.8283 21.7458 12.6167 21.8333 12.3958 21.8333H10.1667V19.6041C10.1667 19.3833 10.2542 19.1716 10.4108 19.0158Z" stroke="#323232" stroke-width="1.5" stroke-linecap="round" stroke-linejoin="round"/>
<path d="M17.4583 11.9667L20.0333 14.5417" stroke="#323232" stroke-width="1.5" stroke-linecap="round" stroke-linejoin="round"/>
<path d="M48.375 17H45.233V6.81818H48.5142C49.5019 6.81818 50.3471 7.02202 51.0497 7.42969C51.7524 7.83404 52.291 8.41572 52.6655 9.17472C53.04 9.9304 53.2273 10.8352 53.2273 11.8892C53.2273 12.9498 53.0384 13.8629 52.6605 14.6286C52.2827 15.3909 51.7325 15.9775 51.0099 16.3885C50.2874 16.7962 49.4091 17 48.375 17ZM46.4659 15.9062H48.2955C49.1373 15.9062 49.835 15.7438 50.3885 15.419C50.942 15.0942 51.3546 14.6319 51.6264 14.032C51.8982 13.4321 52.0341 12.7178 52.0341 11.8892C52.0341 11.0672 51.8999 10.3596 51.6314 9.76633C51.3629 9.16974 50.9619 8.71236 50.4283 8.39418C49.8946 8.07268 49.2301 7.91193 48.4347 7.91193H46.4659V15.9062ZM58.3381 17.1591C57.6023 17.1591 56.9676 16.9967 56.4339 16.6719C55.9036 16.3438 55.4943 15.8864 55.206 15.2997C54.9209 14.7098 54.7784 14.0237 54.7784 13.2415C54.7784 12.4593 54.9209 11.7699 55.206 11.1733C55.4943 10.5734 55.8954 10.1061 56.4091 9.77131C56.9261 9.43324 57.5294 9.2642 58.2188 9.2642C58.6165 9.2642 59.0092 9.33049 59.397 9.46307C59.7848 9.59564 60.1378 9.81108 60.456 10.1094C60.7741 10.4044 61.0277 10.7955 61.2166 11.2827C61.4055 11.7699 61.5 12.3698 61.5 13.0824V13.5795H55.6136V12.5653H60.3068C60.3068 12.1345 60.2206 11.75 60.0483 11.4119C59.8793 11.0739 59.6373 10.8071 59.3224 10.6115C59.0109 10.416 58.643 10.3182 58.2188 10.3182C57.7514 10.3182 57.3471 10.4342 57.0057 10.6662C56.6676 10.8949 56.4074 11.1932 56.2251 11.5611C56.0429 11.929 55.9517 12.3234 55.9517 12.7443V13.4205C55.9517 13.9972 56.0511 14.486 56.25 14.8871C56.4522 15.2848 56.7322 15.5881 57.0902 15.7969C57.4482 16.0024 57.8641 16.1051 58.3381 16.1051C58.6463 16.1051 58.9247 16.062 59.1733 15.9759C59.4252 15.8864 59.6423 15.7538 59.8246 15.5781C60.0069 15.3991 60.1477 15.1771 60.2472 14.9119L61.3807 15.2301C61.2614 15.6146 61.0608 15.9527 60.7791 16.2443C60.4974 16.5327 60.1494 16.758 59.7351 16.9205C59.3208 17.0795 58.8551 17.1591 58.3381 17.1591ZM63.2848 19.8636V9.36364H64.4183V10.5767H64.5575C64.6437 10.4441 64.763 10.2751 64.9155 10.0696C65.0713 9.8608 65.2933 9.67519 65.5817 9.51278C65.8733 9.34706 66.2678 9.2642 66.7649 9.2642C67.4079 9.2642 67.9747 9.42495 68.4652 9.74645C68.9557 10.0679 69.3385 10.5237 69.6136 11.1136C69.8887 11.7036 70.0263 12.3996 70.0263 13.2017C70.0263 14.0104 69.8887 14.7114 69.6136 15.3047C69.3385 15.8946 68.9574 16.352 68.4702 16.6768C67.983 16.9983 67.4212 17.1591 66.7848 17.1591C66.2943 17.1591 65.9015 17.0779 65.6065 16.9155C65.3116 16.7498 65.0845 16.5625 64.9254 16.3537C64.7663 16.1416 64.6437 15.9659 64.5575 15.8267H64.4581V19.8636H63.2848ZM64.4382 13.1818C64.4382 13.7585 64.5227 14.2673 64.6918 14.7081C64.8608 15.1456 65.1077 15.4886 65.4325 15.7372C65.7573 15.9825 66.1551 16.1051 66.6257 16.1051C67.1162 16.1051 67.5256 15.9759 67.8537 15.7173C68.1851 15.4555 68.4337 15.1042 68.5994 14.6634C68.7685 14.2192 68.853 13.7254 68.853 13.1818C68.853 12.6449 68.7701 12.161 68.6044 11.7301C68.442 11.2959 68.1951 10.9529 67.8636 10.701C67.5355 10.4458 67.1229 10.3182 66.6257 10.3182C66.1484 10.3182 65.7474 10.4392 65.4226 10.6811C65.0978 10.9197 64.8525 11.2545 64.6868 11.6854C64.5211 12.1129 64.4382 12.6117 64.4382 13.1818ZM74.0632 17.179C73.5793 17.179 73.1402 17.0878 72.7457 16.9055C72.3513 16.7199 72.0381 16.4531 71.8061 16.1051C71.5741 15.7538 71.4581 15.3295 71.4581 14.8324C71.4581 14.3949 71.5443 14.0402 71.7166 13.7685C71.889 13.4934 72.1193 13.2779 72.4077 13.1222C72.696 12.9664 73.0142 12.8504 73.3622 12.7741C73.7135 12.6946 74.0665 12.6316 74.4212 12.5852C74.8852 12.5256 75.2614 12.4808 75.5497 12.451C75.8414 12.4179 76.0535 12.3632 76.1861 12.2869C76.322 12.2107 76.3899 12.0781 76.3899 11.8892V11.8494C76.3899 11.3589 76.2557 10.9777 75.9872 10.706C75.7221 10.4342 75.3194 10.2983 74.7791 10.2983C74.219 10.2983 73.7798 10.4209 73.4616 10.6662C73.1435 10.9115 72.9197 11.1733 72.7905 11.4517L71.6768 11.054C71.8757 10.59 72.1409 10.2287 72.4723 9.97017C72.8071 9.70833 73.1716 9.52604 73.5661 9.4233C73.9638 9.31723 74.3549 9.2642 74.7393 9.2642C74.9846 9.2642 75.2663 9.29403 75.5845 9.35369C75.906 9.41004 76.2159 9.5277 76.5142 9.70668C76.8158 9.88565 77.0661 10.1558 77.2649 10.517C77.4638 10.8783 77.5632 11.3622 77.5632 11.9688V17H76.3899V15.9659H76.3303C76.2507 16.1316 76.1181 16.3089 75.9325 16.4979C75.7469 16.6868 75.5 16.8475 75.1918 16.9801C74.8835 17.1127 74.5073 17.179 74.0632 17.179ZM74.2422 16.125C74.7062 16.125 75.0973 16.0339 75.4155 15.8516C75.737 15.6693 75.9789 15.4339 76.1413 15.1456C76.3071 14.8572 76.3899 14.554 76.3899 14.2358V13.1619C76.3402 13.2216 76.2308 13.2763 76.0618 13.326C75.8961 13.3724 75.7038 13.4138 75.4851 13.4503C75.2696 13.4834 75.0592 13.5133 74.8537 13.5398C74.6515 13.563 74.4875 13.5829 74.3615 13.5994C74.0566 13.6392 73.7715 13.7038 73.5064 13.7933C73.2446 13.8795 73.0324 14.0104 72.87 14.1861C72.7109 14.3584 72.6314 14.5937 72.6314 14.892C72.6314 15.2997 72.7822 15.608 73.0838 15.8168C73.3887 16.0223 73.7749 16.125 74.2422 16.125ZM79.7047 17V9.36364H80.8382V10.517H80.9178C81.057 10.1392 81.3089 9.83262 81.6735 9.5973C82.0381 9.36198 82.449 9.24432 82.9064 9.24432C82.9926 9.24432 83.1003 9.24597 83.2296 9.24929C83.3588 9.2526 83.4566 9.25758 83.5229 9.2642V10.4574C83.4831 10.4474 83.392 10.4325 83.2495 10.4126C83.1103 10.3894 82.9628 10.3778 82.807 10.3778C82.4358 10.3778 82.1043 10.4557 81.8127 10.6115C81.5243 10.764 81.2956 10.9761 81.1266 11.2479C80.9609 11.5163 80.878 11.8229 80.878 12.1676V17H79.7047ZM88.7132 9.36364V10.358H84.7559V9.36364H88.7132ZM85.9093 7.53409H87.0826V14.8125C87.0826 15.1439 87.1306 15.3925 87.2267 15.5582C87.3262 15.7206 87.4521 15.83 87.6046 15.8864C87.7604 15.9394 87.9244 15.9659 88.0968 15.9659C88.226 15.9659 88.3321 15.9593 88.415 15.946C88.4978 15.9295 88.5641 15.9162 88.6138 15.9062L88.8525 16.9602C88.7729 16.9901 88.6619 17.0199 88.5194 17.0497C88.3768 17.0829 88.1962 17.0994 87.9775 17.0994C87.646 17.0994 87.3212 17.0282 87.003 16.8857C86.6882 16.7431 86.4263 16.526 86.2175 16.2344C86.012 15.9427 85.9093 15.5748 85.9093 15.1307V7.53409ZM90.4782 17V9.36364H91.6117V10.5568H91.7111C91.8702 10.1491 92.1271 9.83262 92.4817 9.60724C92.8364 9.37855 93.2623 9.2642 93.7594 9.2642C94.2632 9.2642 94.6825 9.37855 95.0172 9.60724C95.3553 9.83262 95.6188 10.1491 95.8077 10.5568H95.8873C96.0828 10.1624 96.3761 9.84919 96.7672 9.61719C97.1583 9.38187 97.6273 9.2642 98.1742 9.2642C98.8569 9.2642 99.4154 9.47798 99.8496 9.90554C100.284 10.3298 100.501 10.991 100.501 11.8892V17H99.3276V11.8892C99.3276 11.3258 99.1735 10.9231 98.8652 10.6811C98.557 10.4392 98.1941 10.3182 97.7765 10.3182C97.2395 10.3182 96.8236 10.4806 96.5286 10.8054C96.2336 11.1269 96.0861 11.5346 96.0861 12.0284V17H94.8929V11.7699C94.8929 11.3357 94.7521 10.986 94.4703 10.7209C94.1886 10.4524 93.8257 10.3182 93.3816 10.3182C93.0766 10.3182 92.7916 10.3994 92.5265 10.5618C92.2646 10.7242 92.0525 10.9496 91.8901 11.2379C91.731 11.523 91.6515 11.8527 91.6515 12.2273V17H90.4782ZM105.848 17.1591C105.112 17.1591 104.477 16.9967 103.944 16.6719C103.413 16.3438 103.004 15.8864 102.716 15.2997C102.431 14.7098 102.288 14.0237 102.288 13.2415C102.288 12.4593 102.431 11.7699 102.716 11.1733C103.004 10.5734 103.405 10.1061 103.919 9.77131C104.436 9.43324 105.039 9.2642 105.729 9.2642C106.126 9.2642 106.519 9.33049 106.907 9.46307C107.295 9.59564 107.648 9.81108 107.966 10.1094C108.284 10.4044 108.537 10.7955 108.726 11.2827C108.915 11.7699 109.01 12.3698 109.01 13.0824V13.5795H103.123V12.5653H107.817C107.817 12.1345 107.73 11.75 107.558 11.4119C107.389 11.0739 107.147 10.8071 106.832 10.6115C106.521 10.416 106.153 10.3182 105.729 10.3182C105.261 10.3182 104.857 10.4342 104.515 10.6662C104.177 10.8949 103.917 11.1932 103.735 11.5611C103.553 11.929 103.461 12.3234 103.461 12.7443V13.4205C103.461 13.9972 103.561 14.486 103.76 14.8871C103.962 15.2848 104.242 15.5881 104.6 15.7969C104.958 16.0024 105.374 16.1051 105.848 16.1051C106.156 16.1051 106.434 16.062 106.683 15.9759C106.935 15.8864 107.152 15.7538 107.334 15.5781C107.517 15.3991 107.657 15.1771 107.757 14.9119L108.89 15.2301C108.771 15.6146 108.571 15.9527 108.289 16.2443C108.007 16.5327 107.659 16.758 107.245 16.9205C106.831 17.0795 106.365 17.1591 105.848 17.1591ZM111.968 12.4062V17H110.795V9.36364H111.928V10.5568H112.028C112.206 10.169 112.478 9.85748 112.843 9.62216C113.207 9.38352 113.678 9.2642 114.255 9.2642C114.772 9.2642 115.224 9.37027 115.612 9.58239C116 9.79119 116.301 10.1094 116.517 10.5369C116.732 10.9612 116.84 11.4981 116.84 12.1477V17H115.667V12.2273C115.667 11.6274 115.511 11.16 115.199 10.8253C114.888 10.4872 114.46 10.3182 113.917 10.3182C113.542 10.3182 113.207 10.3994 112.912 10.5618C112.621 10.7242 112.39 10.9612 112.221 11.2727C112.052 11.5843 111.968 11.9621 111.968 12.4062ZM122.305 9.36364V10.358H118.348V9.36364H122.305ZM119.501 7.53409H120.674V14.8125C120.674 15.1439 120.722 15.3925 120.819 15.5582C120.918 15.7206 121.044 15.83 121.196 15.8864C121.352 15.9394 121.516 15.9659 121.689 15.9659C121.818 15.9659 121.924 15.9593 122.007 15.946C122.09 15.9295 122.156 15.9162 122.206 15.9062L122.444 16.9602C122.365 16.9901 122.254 17.0199 122.111 17.0497C121.969 17.0829 121.788 17.0994 121.569 17.0994C121.238 17.0994 120.913 17.0282 120.595 16.8857C120.28 16.7431 120.018 16.526 119.809 16.2344C119.604 15.9427 119.501 15.5748 119.501 15.1307V7.53409Z" fill="#666666"/>
<path d="M49.0455 46H45.2784V34.3636H49.1648C50.3049 34.3636 51.2841 34.5966 52.1023 35.0625C52.9205 35.5246 53.5473 36.1894 53.983 37.0568C54.4223 37.9205 54.642 38.9564 54.642 40.1648C54.642 41.3769 54.4205 42.4186 53.9773 43.2898C53.5379 44.161 52.9015 44.8314 52.0682 45.3011C51.2348 45.767 50.2273 46 49.0455 46ZM47.0341 44.4659H48.9489C49.8352 44.4659 50.572 44.2992 51.1591 43.9659C51.7462 43.6288 52.1856 43.142 52.4773 42.5057C52.7689 41.8655 52.9148 41.0852 52.9148 40.1648C52.9148 39.2519 52.7689 38.4773 52.4773 37.8409C52.1894 37.2045 51.7595 36.7216 51.1875 36.392C50.6155 36.0625 49.9053 35.8977 49.0568 35.8977H47.0341V44.4659ZM60.4503 46.1761C59.5904 46.1761 58.8499 45.9924 58.2287 45.625C57.6113 45.2538 57.134 44.733 56.7969 44.0625C56.4635 43.3883 56.2969 42.5985 56.2969 41.6932C56.2969 40.7992 56.4635 40.0114 56.7969 39.3295C57.134 38.6477 57.6037 38.1155 58.206 37.733C58.812 37.3504 59.5204 37.1591 60.331 37.1591C60.8234 37.1591 61.3007 37.2405 61.7628 37.4034C62.2249 37.5663 62.6397 37.822 63.0071 38.1705C63.3745 38.5189 63.6643 38.9716 63.8764 39.5284C64.0885 40.0814 64.1946 40.7538 64.1946 41.5455V42.1477H57.2571V40.875H62.5298C62.5298 40.428 62.4389 40.0322 62.2571 39.6875C62.0753 39.339 61.8196 39.0644 61.4901 38.8636C61.1643 38.6629 60.7817 38.5625 60.3423 38.5625C59.8651 38.5625 59.4484 38.6799 59.0923 38.9148C58.7401 39.1458 58.4673 39.4489 58.2741 39.8239C58.0848 40.1951 57.9901 40.5985 57.9901 41.0341V42.0284C57.9901 42.6117 58.0923 43.108 58.2969 43.517C58.5052 43.9261 58.795 44.2386 59.1662 44.4545C59.5374 44.6667 59.9711 44.7727 60.4673 44.7727C60.7893 44.7727 61.0829 44.7273 61.348 44.6364C61.6132 44.5417 61.8423 44.4015 62.0355 44.2159C62.2287 44.0303 62.3764 43.8011 62.4787 43.5284L64.0866 43.8182C63.9579 44.2917 63.7268 44.7064 63.3935 45.0625C63.0639 45.4148 62.6491 45.6894 62.1491 45.8864C61.6529 46.0795 61.0866 46.1761 60.4503 46.1761ZM73.2955 37.2727L70.1307 46H68.3125L65.142 37.2727H66.9659L69.1761 43.9886H69.267L71.4716 37.2727H73.2955ZM78.3565 46.1761C77.4967 46.1761 76.7562 45.9924 76.1349 45.625C75.5175 45.2538 75.0402 44.733 74.7031 44.0625C74.3698 43.3883 74.2031 42.5985 74.2031 41.6932C74.2031 40.7992 74.3698 40.0114 74.7031 39.3295C75.0402 38.6477 75.5099 38.1155 76.1122 37.733C76.7183 37.3504 77.4266 37.1591 78.2372 37.1591C78.7296 37.1591 79.2069 37.2405 79.669 37.4034C80.1312 37.5663 80.5459 37.822 80.9134 38.1705C81.2808 38.5189 81.5705 38.9716 81.7827 39.5284C81.9948 40.0814 82.1009 40.7538 82.1009 41.5455V42.1477H75.1634V40.875H80.4361C80.4361 40.428 80.3452 40.0322 80.1634 39.6875C79.9815 39.339 79.7259 39.0644 79.3963 38.8636C79.0705 38.6629 78.688 38.5625 78.2486 38.5625C77.7713 38.5625 77.3546 38.6799 76.9986 38.9148C76.6463 39.1458 76.3736 39.4489 76.1804 39.8239C75.991 40.1951 75.8963 40.5985 75.8963 41.0341V42.0284C75.8963 42.6117 75.9986 43.108 76.2031 43.517C76.4115 43.9261 76.7012 44.2386 77.0724 44.4545C77.4437 44.6667 77.8774 44.7727 78.3736 44.7727C78.6955 44.7727 78.9891 44.7273 79.2543 44.6364C79.5194 44.5417 79.7486 44.4015 79.9418 44.2159C80.1349 44.0303 80.2827 43.8011 80.3849 43.5284L81.9929 43.8182C81.8641 44.2917 81.633 44.7064 81.2997 45.0625C80.9702 45.4148 80.5554 45.6894 80.0554 45.8864C79.5592 46.0795 78.9929 46.1761 78.3565 46.1761ZM85.6847 34.3636V46H83.9858V34.3636H85.6847ZM91.6463 46.1761C90.8281 46.1761 90.1141 45.9886 89.5043 45.6136C88.8944 45.2386 88.4209 44.714 88.0838 44.0398C87.7467 43.3655 87.5781 42.5777 87.5781 41.6761C87.5781 40.7708 87.7467 39.9792 88.0838 39.3011C88.4209 38.6231 88.8944 38.0966 89.5043 37.7216C90.1141 37.3466 90.8281 37.1591 91.6463 37.1591C92.4645 37.1591 93.1785 37.3466 93.7884 37.7216C94.3982 38.0966 94.8717 38.6231 95.2088 39.3011C95.5459 39.9792 95.7145 40.7708 95.7145 41.6761C95.7145 42.5777 95.5459 43.3655 95.2088 44.0398C94.8717 44.714 94.3982 45.2386 93.7884 45.6136C93.1785 45.9886 92.4645 46.1761 91.6463 46.1761ZM91.652 44.75C92.1823 44.75 92.6217 44.6098 92.9702 44.3295C93.3187 44.0492 93.5762 43.6761 93.7429 43.2102C93.9134 42.7443 93.9986 42.2311 93.9986 41.6705C93.9986 41.1136 93.9134 40.6023 93.7429 40.1364C93.5762 39.6667 93.3187 39.2898 92.9702 39.0057C92.6217 38.7216 92.1823 38.5795 91.652 38.5795C91.1179 38.5795 90.6747 38.7216 90.3224 39.0057C89.974 39.2898 89.7145 39.6667 89.544 40.1364C89.3774 40.6023 89.294 41.1136 89.294 41.6705C89.294 42.2311 89.3774 42.7443 89.544 43.2102C89.7145 43.6761 89.974 44.0492 90.3224 44.3295C90.6747 44.6098 91.1179 44.75 91.652 44.75ZM97.6108 49.2727V37.2727H99.2699V38.6875H99.4119C99.5104 38.5057 99.6525 38.2955 99.8381 38.0568C100.024 37.8182 100.281 37.6098 100.611 37.4318C100.94 37.25 101.376 37.1591 101.918 37.1591C102.622 37.1591 103.251 37.3371 103.804 37.6932C104.357 38.0492 104.791 38.5625 105.105 39.233C105.423 39.9034 105.582 40.7102 105.582 41.6534C105.582 42.5966 105.425 43.4053 105.111 44.0795C104.796 44.75 104.365 45.267 103.815 45.6307C103.266 45.9905 102.639 46.1705 101.935 46.1705C101.404 46.1705 100.971 46.0814 100.634 45.9034C100.3 45.7254 100.039 45.517 99.8494 45.2784C99.66 45.0398 99.5142 44.8277 99.4119 44.642H99.3097V49.2727H97.6108ZM99.2756 41.6364C99.2756 42.25 99.3646 42.7879 99.5426 43.25C99.7206 43.7121 99.9782 44.0739 100.315 44.3352C100.652 44.5928 101.065 44.7216 101.554 44.7216C102.062 44.7216 102.486 44.5871 102.827 44.3182C103.168 44.0455 103.425 43.6761 103.599 43.2102C103.777 42.7443 103.866 42.2197 103.866 41.6364C103.866 41.0606 103.779 40.5436 103.605 40.0852C103.435 39.6269 103.177 39.2652 102.832 39C102.491 38.7348 102.065 38.6023 101.554 38.6023C101.062 38.6023 100.645 38.7292 100.304 38.983C99.9669 39.2367 99.7112 39.5909 99.5369 40.0455C99.3627 40.5 99.2756 41.0303 99.2756 41.6364ZM107.486 46V37.2727H109.116V38.6932H109.224C109.406 38.2121 109.704 37.8371 110.116 37.5682C110.529 37.2955 111.024 37.1591 111.599 37.1591C112.183 37.1591 112.671 37.2955 113.065 37.5682C113.463 37.8409 113.757 38.2159 113.946 38.6932H114.037C114.245 38.2273 114.577 37.8561 115.031 37.5795C115.486 37.2992 116.027 37.1591 116.656 37.1591C117.448 37.1591 118.094 37.4072 118.594 37.9034C119.098 38.3996 119.349 39.1477 119.349 40.1477V46H117.651V40.3068C117.651 39.7159 117.49 39.2879 117.168 39.0227C116.846 38.7576 116.461 38.625 116.014 38.625C115.461 38.625 115.031 38.7955 114.724 39.1364C114.418 39.4735 114.264 39.9072 114.264 40.4375V46H112.571V40.1989C112.571 39.7254 112.423 39.3447 112.128 39.0568C111.832 38.7689 111.448 38.625 110.974 38.625C110.652 38.625 110.355 38.7102 110.082 38.8807C109.813 39.0473 109.596 39.2803 109.429 39.5795C109.266 39.8788 109.185 40.2254 109.185 40.6193V46H107.486ZM125.388 46.1761C124.528 46.1761 123.787 45.9924 123.166 45.625C122.549 45.2538 122.071 44.733 121.734 44.0625C121.401 43.3883 121.234 42.5985 121.234 41.6932C121.234 40.7992 121.401 40.0114 121.734 39.3295C122.071 38.6477 122.541 38.1155 123.143 37.733C123.75 37.3504 124.458 37.1591 125.268 37.1591C125.761 37.1591 126.238 37.2405 126.7 37.4034C127.162 37.5663 127.577 37.822 127.945 38.1705C128.312 38.5189 128.602 38.9716 128.814 39.5284C129.026 40.0814 129.132 40.7538 129.132 41.5455V42.1477H122.195V40.875H127.467C127.467 40.428 127.376 40.0322 127.195 39.6875C127.013 39.339 126.757 39.0644 126.428 38.8636C126.102 38.6629 125.719 38.5625 125.28 38.5625C124.803 38.5625 124.386 38.6799 124.03 38.9148C123.678 39.1458 123.405 39.4489 123.212 39.8239C123.022 40.1951 122.928 40.5985 122.928 41.0341V42.0284C122.928 42.6117 123.03 43.108 123.234 43.517C123.443 43.9261 123.732 44.2386 124.104 44.4545C124.475 44.6667 124.909 44.7727 125.405 44.7727C125.727 44.7727 126.02 44.7273 126.286 44.6364C126.551 44.5417 126.78 44.4015 126.973 44.2159C127.166 44.0303 127.314 43.8011 127.416 43.5284L129.024 43.8182C128.895 44.2917 128.664 44.7064 128.331 45.0625C128.001 45.4148 127.587 45.6894 127.087 45.8864C126.59 46.0795 126.024 46.1761 125.388 46.1761ZM132.716 40.8182V46H131.017V37.2727H132.648V38.6932H132.756C132.956 38.2311 133.271 37.8598 133.699 37.5795C134.131 37.2992 134.674 37.1591 135.33 37.1591C135.924 37.1591 136.445 37.2841 136.892 37.5341C137.339 37.7803 137.686 38.1477 137.932 38.6364C138.178 39.125 138.301 39.7292 138.301 40.4489V46H136.602V40.6534C136.602 40.0208 136.438 39.5265 136.108 39.1705C135.778 38.8106 135.326 38.6307 134.75 38.6307C134.356 38.6307 134.006 38.7159 133.699 38.8864C133.396 39.0568 133.155 39.3068 132.977 39.6364C132.803 39.9621 132.716 40.3561 132.716 40.8182ZM144.653 37.2727V38.6364H139.886V37.2727H144.653ZM141.165 35.1818H142.864V43.4375C142.864 43.767 142.913 44.0152 143.011 44.1818C143.11 44.3447 143.237 44.4564 143.392 44.517C143.551 44.5739 143.723 44.6023 143.909 44.6023C144.045 44.6023 144.165 44.5928 144.267 44.5739C144.369 44.5549 144.449 44.5398 144.506 44.5284L144.812 45.9318C144.714 45.9697 144.574 46.0076 144.392 46.0455C144.21 46.0871 143.983 46.1098 143.71 46.1136C143.263 46.1212 142.847 46.0417 142.46 45.875C142.074 45.7083 141.761 45.4508 141.523 45.1023C141.284 44.7538 141.165 44.3163 141.165 43.7898V35.1818Z" fill="#14171F"/>
</svg>
