<svg width="201" height="76" viewBox="0 0 201 76" fill="none" xmlns="http://www.w3.org/2000/svg">
<rect x="0.5" y="0.5" width="31" height="31" rx="15.5" stroke="#C7C7C7"/>
<path fill-rule="evenodd" clip-rule="evenodd" d="M10.4108 19.0158L19.0158 10.4108C19.3408 10.0858 19.8683 10.0858 20.1933 10.4108L21.59 11.8075C21.915 12.1325 21.915 12.66 21.59 12.985L12.9842 21.5891C12.8283 21.7458 12.6167 21.8333 12.3958 21.8333H10.1667V19.6041C10.1667 19.3833 10.2542 19.1716 10.4108 19.0158Z" stroke="#323232" stroke-width="1.5" stroke-linecap="round" stroke-linejoin="round"/>
<path d="M17.4583 11.9667L20.0333 14.5417" stroke="#323232" stroke-width="1.5" stroke-linecap="round" stroke-linejoin="round"/>
<path d="M45.233 17V6.81818H48.6733C49.4688 6.81818 50.1217 6.95407 50.6321 7.22585C51.1425 7.49432 51.5204 7.86387 51.7656 8.33452C52.0109 8.80516 52.1335 9.34044 52.1335 9.94034C52.1335 10.5402 52.0109 11.0722 51.7656 11.5362C51.5204 12.0002 51.1442 12.3648 50.6371 12.63C50.13 12.8918 49.482 13.0227 48.6932 13.0227H45.9091V11.9091H48.6534C49.197 11.9091 49.6345 11.8295 49.9659 11.6705C50.3007 11.5114 50.5426 11.286 50.6918 10.9943C50.8442 10.6993 50.9205 10.348 50.9205 9.94034C50.9205 9.53267 50.8442 9.17637 50.6918 8.87145C50.5393 8.56652 50.2957 8.3312 49.9609 8.16548C49.6262 7.99645 49.1837 7.91193 48.6335 7.91193H46.4659V17H45.233ZM50.0256 12.4261L52.5312 17H51.0994L48.6335 12.4261H50.0256ZM57.0492 17.1591C56.3598 17.1591 55.7549 16.995 55.2346 16.6669C54.7175 16.3388 54.3132 15.8797 54.0215 15.2898C53.7331 14.6998 53.589 14.0104 53.589 13.2216C53.589 12.4261 53.7331 11.7318 54.0215 11.1385C54.3132 10.5452 54.7175 10.0845 55.2346 9.75639C55.7549 9.42827 56.3598 9.2642 57.0492 9.2642C57.7386 9.2642 58.3418 9.42827 58.8588 9.75639C59.3792 10.0845 59.7836 10.5452 60.0719 11.1385C60.3636 11.7318 60.5094 12.4261 60.5094 13.2216C60.5094 14.0104 60.3636 14.6998 60.0719 15.2898C59.7836 15.8797 59.3792 16.3388 58.8588 16.6669C58.3418 16.995 57.7386 17.1591 57.0492 17.1591ZM57.0492 16.1051C57.5729 16.1051 58.0037 15.9709 58.3418 15.7024C58.6799 15.4339 58.9301 15.081 59.0925 14.6435C59.2549 14.206 59.3361 13.732 59.3361 13.2216C59.3361 12.7112 59.2549 12.2356 59.0925 11.7947C58.9301 11.3539 58.6799 10.9976 58.3418 10.7259C58.0037 10.4541 57.5729 10.3182 57.0492 10.3182C56.5255 10.3182 56.0946 10.4541 55.7566 10.7259C55.4185 10.9976 55.1683 11.3539 55.0059 11.7947C54.8435 12.2356 54.7623 12.7112 54.7623 13.2216C54.7623 13.732 54.8435 14.206 55.0059 14.6435C55.1683 15.081 55.4185 15.4339 55.7566 15.7024C56.0946 15.9709 56.5255 16.1051 57.0492 16.1051ZM63.4737 6.81818V17H62.3004V6.81818H63.4737ZM68.8244 17.1591C68.0886 17.1591 67.4539 16.9967 66.9203 16.6719C66.39 16.3438 65.9806 15.8864 65.6923 15.2997C65.4073 14.7098 65.2647 14.0237 65.2647 13.2415C65.2647 12.4593 65.4073 11.7699 65.6923 11.1733C65.9806 10.5734 66.3817 10.1061 66.8954 9.77131C67.4125 9.43324 68.0157 9.2642 68.7051 9.2642C69.1028 9.2642 69.4956 9.33049 69.8833 9.46307C70.2711 9.59564 70.6241 9.81108 70.9423 10.1094C71.2605 10.4044 71.514 10.7955 71.7029 11.2827C71.8919 11.7699 71.9863 12.3698 71.9863 13.0824V13.5795H66.1V12.5653H70.7931C70.7931 12.1345 70.707 11.75 70.5346 11.4119C70.3656 11.0739 70.1236 10.8071 69.8088 10.6115C69.4972 10.416 69.1293 10.3182 68.7051 10.3182C68.2377 10.3182 67.8334 10.4342 67.492 10.6662C67.1539 10.8949 66.8938 11.1932 66.7115 11.5611C66.5292 11.929 66.438 12.3234 66.438 12.7443V13.4205C66.438 13.9972 66.5375 14.486 66.7363 14.8871C66.9385 15.2848 67.2186 15.5881 67.5765 15.7969C67.9345 16.0024 68.3504 16.1051 68.8244 16.1051C69.1326 16.1051 69.411 16.062 69.6596 15.9759C69.9115 15.8864 70.1286 15.7538 70.3109 15.5781C70.4932 15.3991 70.6341 15.1771 70.7335 14.9119L71.867 15.2301C71.7477 15.6146 71.5472 15.9527 71.2654 16.2443C70.9837 16.5327 70.6357 16.758 70.2214 16.9205C69.8071 17.0795 69.3414 17.1591 68.8244 17.1591Z" fill="#666666"/>
<path d="M45.2784 46V34.3636H52.4943V35.875H47.0341V39.4205H51.9773V40.9261H47.0341V46H45.2784ZM54.4077 46V37.2727H56.0497V38.6591H56.1406C56.2997 38.1894 56.58 37.8201 56.9815 37.5511C57.3868 37.2784 57.8452 37.142 58.3565 37.142C58.4626 37.142 58.5876 37.1458 58.7315 37.1534C58.8793 37.161 58.9948 37.1705 59.0781 37.1818V38.8068C59.0099 38.7879 58.8887 38.767 58.7145 38.7443C58.5402 38.7178 58.366 38.7045 58.1918 38.7045C57.7902 38.7045 57.4323 38.7898 57.1179 38.9602C56.8073 39.1269 56.5611 39.3598 56.3793 39.6591C56.1974 39.9545 56.1065 40.2917 56.1065 40.6705V46H54.4077ZM63.9119 46.1761C63.0938 46.1761 62.3797 45.9886 61.7699 45.6136C61.16 45.2386 60.6866 44.714 60.3494 44.0398C60.0123 43.3655 59.8438 42.5777 59.8438 41.6761C59.8438 40.7708 60.0123 39.9792 60.3494 39.3011C60.6866 38.6231 61.16 38.0966 61.7699 37.7216C62.3797 37.3466 63.0938 37.1591 63.9119 37.1591C64.7301 37.1591 65.4441 37.3466 66.054 37.7216C66.6638 38.0966 67.1373 38.6231 67.4744 39.3011C67.8116 39.9792 67.9801 40.7708 67.9801 41.6761C67.9801 42.5777 67.8116 43.3655 67.4744 44.0398C67.1373 44.714 66.6638 45.2386 66.054 45.6136C65.4441 45.9886 64.7301 46.1761 63.9119 46.1761ZM63.9176 44.75C64.4479 44.75 64.8873 44.6098 65.2358 44.3295C65.5843 44.0492 65.8419 43.6761 66.0085 43.2102C66.179 42.7443 66.2642 42.2311 66.2642 41.6705C66.2642 41.1136 66.179 40.6023 66.0085 40.1364C65.8419 39.6667 65.5843 39.2898 65.2358 39.0057C64.8873 38.7216 64.4479 38.5795 63.9176 38.5795C63.3835 38.5795 62.9403 38.7216 62.5881 39.0057C62.2396 39.2898 61.9801 39.6667 61.8097 40.1364C61.643 40.6023 61.5597 41.1136 61.5597 41.6705C61.5597 42.2311 61.643 42.7443 61.8097 43.2102C61.9801 43.6761 62.2396 44.0492 62.5881 44.3295C62.9403 44.6098 63.3835 44.75 63.9176 44.75ZM71.5753 40.8182V46H69.8764V37.2727H71.5071V38.6932H71.6151C71.8158 38.2311 72.1302 37.8598 72.5582 37.5795C72.9901 37.2992 73.5336 37.1591 74.1889 37.1591C74.7836 37.1591 75.3045 37.2841 75.7514 37.5341C76.1984 37.7803 76.545 38.1477 76.7912 38.6364C77.0374 39.125 77.1605 39.7292 77.1605 40.4489V46H75.4616V40.6534C75.4616 40.0208 75.2969 39.5265 74.9673 39.1705C74.6378 38.8106 74.1851 38.6307 73.6094 38.6307C73.2154 38.6307 72.8651 38.7159 72.5582 38.8864C72.2552 39.0568 72.0147 39.3068 71.8366 39.6364C71.6624 39.9621 71.5753 40.3561 71.5753 40.8182ZM83.5128 37.2727V38.6364H78.7457V37.2727H83.5128ZM80.0241 35.1818H81.723V43.4375C81.723 43.767 81.7723 44.0152 81.8707 44.1818C81.9692 44.3447 82.0961 44.4564 82.2514 44.517C82.4105 44.5739 82.5829 44.6023 82.7685 44.6023C82.9048 44.6023 83.0241 44.5928 83.1264 44.5739C83.2287 44.5549 83.3082 44.5398 83.3651 44.5284L83.6719 45.9318C83.5734 45.9697 83.4332 46.0076 83.2514 46.0455C83.0696 46.0871 82.8423 46.1098 82.5696 46.1136C82.1226 46.1212 81.706 46.0417 81.3196 45.875C80.9332 45.7083 80.6207 45.4508 80.3821 45.1023C80.1435 44.7538 80.0241 44.3163 80.0241 43.7898V35.1818ZM90.2372 40.3466V41.8182H85.0781V40.3466H90.2372ZM96.2628 46.1761C95.4029 46.1761 94.6624 45.9924 94.0412 45.625C93.4238 45.2538 92.9465 44.733 92.6094 44.0625C92.276 43.3883 92.1094 42.5985 92.1094 41.6932C92.1094 40.7992 92.276 40.0114 92.6094 39.3295C92.9465 38.6477 93.4162 38.1155 94.0185 37.733C94.6245 37.3504 95.3329 37.1591 96.1435 37.1591C96.6359 37.1591 97.1132 37.2405 97.5753 37.4034C98.0374 37.5663 98.4522 37.822 98.8196 38.1705C99.187 38.5189 99.4768 38.9716 99.6889 39.5284C99.901 40.0814 100.007 40.7538 100.007 41.5455V42.1477H93.0696V40.875H98.3423C98.3423 40.428 98.2514 40.0322 98.0696 39.6875C97.8878 39.339 97.6321 39.0644 97.3026 38.8636C96.9768 38.6629 96.5942 38.5625 96.1548 38.5625C95.6776 38.5625 95.2609 38.6799 94.9048 38.9148C94.5526 39.1458 94.2798 39.4489 94.0866 39.8239C93.8973 40.1951 93.8026 40.5985 93.8026 41.0341V42.0284C93.8026 42.6117 93.9048 43.108 94.1094 43.517C94.3177 43.9261 94.6075 44.2386 94.9787 44.4545C95.3499 44.6667 95.7836 44.7727 96.2798 44.7727C96.6018 44.7727 96.8954 44.7273 97.1605 44.6364C97.4257 44.5417 97.6548 44.4015 97.848 44.2159C98.0412 44.0303 98.1889 43.8011 98.2912 43.5284L99.8991 43.8182C99.7704 44.2917 99.5393 44.7064 99.206 45.0625C98.8764 45.4148 98.4616 45.6894 97.9616 45.8864C97.4654 46.0795 96.8991 46.1761 96.2628 46.1761ZM103.591 40.8182V46H101.892V37.2727H103.523V38.6932H103.631C103.831 38.2311 104.146 37.8598 104.574 37.5795C105.006 37.2992 105.549 37.1591 106.205 37.1591C106.799 37.1591 107.32 37.2841 107.767 37.5341C108.214 37.7803 108.561 38.1477 108.807 38.6364C109.053 39.125 109.176 39.7292 109.176 40.4489V46H107.477V40.6534C107.477 40.0208 107.313 39.5265 106.983 39.1705C106.653 38.8106 106.201 38.6307 105.625 38.6307C105.231 38.6307 104.881 38.7159 104.574 38.8864C104.271 39.0568 104.03 39.3068 103.852 39.6364C103.678 39.9621 103.591 40.3561 103.591 40.8182ZM114.722 46.1705C114.017 46.1705 113.388 45.9905 112.835 45.6307C112.286 45.267 111.854 44.75 111.54 44.0795C111.229 43.4053 111.074 42.5966 111.074 41.6534C111.074 40.7102 111.231 39.9034 111.545 39.233C111.864 38.5625 112.299 38.0492 112.852 37.6932C113.405 37.3371 114.032 37.1591 114.733 37.1591C115.275 37.1591 115.71 37.25 116.04 37.4318C116.373 37.6098 116.631 37.8182 116.812 38.0568C116.998 38.2955 117.142 38.5057 117.244 38.6875H117.347V34.3636H119.045V46H117.386V44.642H117.244C117.142 44.8277 116.994 45.0398 116.801 45.2784C116.612 45.517 116.35 45.7254 116.017 45.9034C115.684 46.0814 115.252 46.1705 114.722 46.1705ZM115.097 44.7216C115.585 44.7216 115.998 44.5928 116.335 44.3352C116.676 44.0739 116.934 43.7121 117.108 43.25C117.286 42.7879 117.375 42.25 117.375 41.6364C117.375 41.0303 117.288 40.5 117.114 40.0455C116.939 39.5909 116.684 39.2367 116.347 38.983C116.009 38.7292 115.593 38.6023 115.097 38.6023C114.585 38.6023 114.159 38.7348 113.818 39C113.477 39.2652 113.22 39.6269 113.045 40.0852C112.875 40.5436 112.79 41.0606 112.79 41.6364C112.79 42.2197 112.877 42.7443 113.051 43.2102C113.225 43.6761 113.483 44.0455 113.824 44.3182C114.169 44.5871 114.593 44.7216 115.097 44.7216ZM128.972 46.1705C128.267 46.1705 127.638 45.9905 127.085 45.6307C126.536 45.267 126.104 44.75 125.79 44.0795C125.479 43.4053 125.324 42.5966 125.324 41.6534C125.324 40.7102 125.481 39.9034 125.795 39.233C126.114 38.5625 126.549 38.0492 127.102 37.6932C127.655 37.3371 128.282 37.1591 128.983 37.1591C129.525 37.1591 129.96 37.25 130.29 37.4318C130.623 37.6098 130.881 37.8182 131.062 38.0568C131.248 38.2955 131.392 38.5057 131.494 38.6875H131.597V34.3636H133.295V46H131.636V44.642H131.494C131.392 44.8277 131.244 45.0398 131.051 45.2784C130.862 45.517 130.6 45.7254 130.267 45.9034C129.934 46.0814 129.502 46.1705 128.972 46.1705ZM129.347 44.7216C129.835 44.7216 130.248 44.5928 130.585 44.3352C130.926 44.0739 131.184 43.7121 131.358 43.25C131.536 42.7879 131.625 42.25 131.625 41.6364C131.625 41.0303 131.538 40.5 131.364 40.0455C131.189 39.5909 130.934 39.2367 130.597 38.983C130.259 38.7292 129.843 38.6023 129.347 38.6023C128.835 38.6023 128.409 38.7348 128.068 39C127.727 39.2652 127.47 39.6269 127.295 40.0852C127.125 40.5436 127.04 41.0606 127.04 41.6364C127.04 42.2197 127.127 42.7443 127.301 43.2102C127.475 43.6761 127.733 44.0455 128.074 44.3182C128.419 44.5871 128.843 44.7216 129.347 44.7216ZM139.482 46.1761C138.622 46.1761 137.881 45.9924 137.26 45.625C136.643 45.2538 136.165 44.733 135.828 44.0625C135.495 43.3883 135.328 42.5985 135.328 41.6932C135.328 40.7992 135.495 40.0114 135.828 39.3295C136.165 38.6477 136.635 38.1155 137.237 37.733C137.843 37.3504 138.552 37.1591 139.362 37.1591C139.855 37.1591 140.332 37.2405 140.794 37.4034C141.256 37.5663 141.671 37.822 142.038 38.1705C142.406 38.5189 142.696 38.9716 142.908 39.5284C143.12 40.0814 143.226 40.7538 143.226 41.5455V42.1477H136.288V40.875H141.561C141.561 40.428 141.47 40.0322 141.288 39.6875C141.107 39.339 140.851 39.0644 140.521 38.8636C140.196 38.6629 139.813 38.5625 139.374 38.5625C138.896 38.5625 138.48 38.6799 138.124 38.9148C137.771 39.1458 137.499 39.4489 137.305 39.8239C137.116 40.1951 137.021 40.5985 137.021 41.0341V42.0284C137.021 42.6117 137.124 43.108 137.328 43.517C137.536 43.9261 137.826 44.2386 138.197 44.4545C138.569 44.6667 139.002 44.7727 139.499 44.7727C139.821 44.7727 140.114 44.7273 140.379 44.6364C140.644 44.5417 140.874 44.4015 141.067 44.2159C141.26 44.0303 141.408 43.8011 141.51 43.5284L143.118 43.8182C142.989 44.2917 142.758 44.7064 142.425 45.0625C142.095 45.4148 141.68 45.6894 141.18 45.8864C140.684 46.0795 140.118 46.1761 139.482 46.1761ZM152.327 37.2727L149.162 46H147.344L144.173 37.2727H145.997L148.207 43.9886H148.298L150.503 37.2727H152.327ZM157.388 46.1761C156.528 46.1761 155.787 45.9924 155.166 45.625C154.549 45.2538 154.071 44.733 153.734 44.0625C153.401 43.3883 153.234 42.5985 153.234 41.6932C153.234 40.7992 153.401 40.0114 153.734 39.3295C154.071 38.6477 154.541 38.1155 155.143 37.733C155.75 37.3504 156.458 37.1591 157.268 37.1591C157.761 37.1591 158.238 37.2405 158.7 37.4034C159.162 37.5663 159.577 37.822 159.945 38.1705C160.312 38.5189 160.602 38.9716 160.814 39.5284C161.026 40.0814 161.132 40.7538 161.132 41.5455V42.1477H154.195V40.875H159.467C159.467 40.428 159.376 40.0322 159.195 39.6875C159.013 39.339 158.757 39.0644 158.428 38.8636C158.102 38.6629 157.719 38.5625 157.28 38.5625C156.803 38.5625 156.386 38.6799 156.03 38.9148C155.678 39.1458 155.405 39.4489 155.212 39.8239C155.022 40.1951 154.928 40.5985 154.928 41.0341V42.0284C154.928 42.6117 155.03 43.108 155.234 43.517C155.443 43.9261 155.732 44.2386 156.104 44.4545C156.475 44.6667 156.909 44.7727 157.405 44.7727C157.727 44.7727 158.02 44.7273 158.286 44.6364C158.551 44.5417 158.78 44.4015 158.973 44.2159C159.166 44.0303 159.314 43.8011 159.416 43.5284L161.024 43.8182C160.895 44.2917 160.664 44.7064 160.331 45.0625C160.001 45.4148 159.587 45.6894 159.087 45.8864C158.59 46.0795 158.024 46.1761 157.388 46.1761ZM164.716 34.3636V46H163.017V34.3636H164.716ZM170.678 46.1761C169.859 46.1761 169.145 45.9886 168.536 45.6136C167.926 45.2386 167.452 44.714 167.115 44.0398C166.778 43.3655 166.609 42.5777 166.609 41.6761C166.609 40.7708 166.778 39.9792 167.115 39.3011C167.452 38.6231 167.926 38.0966 168.536 37.7216C169.145 37.3466 169.859 37.1591 170.678 37.1591C171.496 37.1591 172.21 37.3466 172.82 37.7216C173.429 38.0966 173.903 38.6231 174.24 39.3011C174.577 39.9792 174.746 40.7708 174.746 41.6761C174.746 42.5777 174.577 43.3655 174.24 44.0398C173.903 44.714 173.429 45.2386 172.82 45.6136C172.21 45.9886 171.496 46.1761 170.678 46.1761ZM170.683 44.75C171.214 44.75 171.653 44.6098 172.001 44.3295C172.35 44.0492 172.607 43.6761 172.774 43.2102C172.945 42.7443 173.03 42.2311 173.03 41.6705C173.03 41.1136 172.945 40.6023 172.774 40.1364C172.607 39.6667 172.35 39.2898 172.001 39.0057C171.653 38.7216 171.214 38.5795 170.683 38.5795C170.149 38.5795 169.706 38.7216 169.354 39.0057C169.005 39.2898 168.746 39.6667 168.575 40.1364C168.409 40.6023 168.325 41.1136 168.325 41.6705C168.325 42.2311 168.409 42.7443 168.575 43.2102C168.746 43.6761 169.005 44.0492 169.354 44.3295C169.706 44.6098 170.149 44.75 170.683 44.75ZM176.642 49.2727V37.2727H178.301V38.6875H178.443C178.542 38.5057 178.684 38.2955 178.869 38.0568C179.055 37.8182 179.313 37.6098 179.642 37.4318C179.972 37.25 180.407 37.1591 180.949 37.1591C181.653 37.1591 182.282 37.3371 182.835 37.6932C183.388 38.0492 183.822 38.5625 184.136 39.233C184.455 39.9034 184.614 40.7102 184.614 41.6534C184.614 42.5966 184.456 43.4053 184.142 44.0795C183.828 44.75 183.396 45.267 182.847 45.6307C182.297 45.9905 181.67 46.1705 180.966 46.1705C180.436 46.1705 180.002 46.0814 179.665 45.9034C179.331 45.7254 179.07 45.517 178.881 45.2784C178.691 45.0398 178.545 44.8277 178.443 44.642H178.341V49.2727H176.642ZM178.307 41.6364C178.307 42.25 178.396 42.7879 178.574 43.25C178.752 43.7121 179.009 44.0739 179.347 44.3352C179.684 44.5928 180.097 44.7216 180.585 44.7216C181.093 44.7216 181.517 44.5871 181.858 44.3182C182.199 44.0455 182.456 43.6761 182.631 43.2102C182.809 42.7443 182.898 42.2197 182.898 41.6364C182.898 41.0606 182.811 40.5436 182.636 40.0852C182.466 39.6269 182.208 39.2652 181.864 39C181.523 38.7348 181.097 38.6023 180.585 38.6023C180.093 38.6023 179.676 38.7292 179.335 38.983C178.998 39.2367 178.742 39.5909 178.568 40.0455C178.394 40.5 178.307 41.0303 178.307 41.6364ZM190.278 46.1761C189.419 46.1761 188.678 45.9924 188.057 45.625C187.439 45.2538 186.962 44.733 186.625 44.0625C186.292 43.3883 186.125 42.5985 186.125 41.6932C186.125 40.7992 186.292 40.0114 186.625 39.3295C186.962 38.6477 187.432 38.1155 188.034 37.733C188.64 37.3504 189.348 37.1591 190.159 37.1591C190.652 37.1591 191.129 37.2405 191.591 37.4034C192.053 37.5663 192.468 37.822 192.835 38.1705C193.203 38.5189 193.492 38.9716 193.705 39.5284C193.917 40.0814 194.023 40.7538 194.023 41.5455V42.1477H187.085V40.875H192.358C192.358 40.428 192.267 40.0322 192.085 39.6875C191.903 39.339 191.648 39.0644 191.318 38.8636C190.992 38.6629 190.61 38.5625 190.17 38.5625C189.693 38.5625 189.277 38.6799 188.92 38.9148C188.568 39.1458 188.295 39.4489 188.102 39.8239C187.913 40.1951 187.818 40.5985 187.818 41.0341V42.0284C187.818 42.6117 187.92 43.108 188.125 43.517C188.333 43.9261 188.623 44.2386 188.994 44.4545C189.366 44.6667 189.799 44.7727 190.295 44.7727C190.617 44.7727 190.911 44.7273 191.176 44.6364C191.441 44.5417 191.67 44.4015 191.864 44.2159C192.057 44.0303 192.205 43.8011 192.307 43.5284L193.915 43.8182C193.786 44.2917 193.555 44.7064 193.222 45.0625C192.892 45.4148 192.477 45.6894 191.977 45.8864C191.481 46.0795 190.915 46.1761 190.278 46.1761ZM195.908 46V37.2727H197.55V38.6591H197.641C197.8 38.1894 198.08 37.8201 198.482 37.5511C198.887 37.2784 199.345 37.142 199.857 37.142C199.963 37.142 200.088 37.1458 200.232 37.1534C200.379 37.161 200.495 37.1705 200.578 37.1818V38.8068C200.51 38.7879 200.389 38.767 200.214 38.7443C200.04 38.7178 199.866 38.7045 199.692 38.7045C199.29 38.7045 198.932 38.7898 198.618 38.9602C198.307 39.1269 198.061 39.3598 197.879 39.6591C197.697 39.9545 197.607 40.2917 197.607 40.6705V46H195.908Z" fill="#14171F"/>
</svg>
